<?xml version="1.0" encoding="UTF-8"?><svg id="Capa_2" xmlns="http://www.w3.org/2000/svg" width="80" height="80" viewBox="0 0 80 80"><defs><style>.cls-1{fill:#fff;}.cls-2{fill:#e81f76;}.cls-3{fill:none;stroke:#fff;stroke-miterlimit:10;stroke-width:3.56px;}</style></defs><g id="Capa_1-2"><g><g><circle class="cls-2" cx="40" cy="40" r="40"/><path class="cls-3" d="m61.54,58.46c-7.19-14.36-14.39-28.72-21.58-43.08-7.17,14.36-14.33,28.72-21.5,43.08h43.08Z"/></g><path class="cls-1" d="m37.21,31.14c-.02-.36.1-.67.37-.93.26-.26.57-.39.93-.39h2.97c.36,0,.67.13.93.39.26.26.38.57.37.93l-.39,11.35c-.02.36-.15.66-.4.91-.25.24-.55.37-.9.37h-2.18c-.36,0-.66-.12-.91-.37s-.38-.55-.39-.91l-.4-11.35Zm3.65,14.03c1.24,0,1.87.63,1.87,1.88v.87c0,.58-.16,1.04-.48,1.37-.32.33-.78.5-1.39.5h-1.7c-.61,0-1.07-.17-1.39-.5-.32-.33-.48-.79-.48-1.37v-.87c0-.61.16-1.07.48-1.4.32-.32.78-.48,1.38-.48h1.7Z"/></g></g></svg>