<?xml version="1.0" encoding="UTF-8"?><svg id="Capa_2" xmlns="http://www.w3.org/2000/svg" width="80" height="80" viewBox="0 0 80 80"><defs><style>.cls-1{fill:#fff;}.cls-2{fill:#e81f76;}</style></defs><g id="Capa_1-2"><g><circle class="cls-2" cx="40" cy="40" r="40"/><g><path class="cls-1" d="m39.78,28.14c5.21,0,10.42,0,15.62,0,.35,0,.69,0,1.04.02.4.02.73.17.87.57.14.39.04.75-.29.99-.35.26-.47.62-.51,1.02-.55,5.15-1.1,10.3-1.64,15.45-.52,4.91-1.06,9.81-1.55,14.72-.14,1.36-.2,2.7-.99,3.89-1.2,1.82-2.84,2.83-5.06,2.83-4.89,0-9.77,0-14.66,0-2.89,0-5.08-1.68-5.91-4.47-.46-1.56-.47-3.17-.63-4.76-.75-7.14-1.47-14.28-2.19-21.42-.21-2.09-.43-4.17-.62-6.26-.04-.4-.12-.7-.52-.9-.39-.19-.59-.55-.48-.98.12-.47.47-.67.94-.69.37-.01.74-.01,1.11-.01,5.16,0,10.32,0,15.48,0Zm1.5,20.79c0-4.47,0-8.93,0-13.4,0-.34,0-.69-.04-1.03-.14-1.09-.81-1.69-1.81-1.64-1.35.06-1.89.56-1.93,1.81,0,.22,0,.44,0,.67,0,9.05,0,18.11,0,27.16,0,.32,0,.64.03.96.08.89.66,1.43,1.55,1.48,1.47.09,2.21-.59,2.21-2.1.01-4.64,0-9.28,0-13.91Zm-7.67,13.57c-.12-1.9-.22-3.68-.34-5.45-.38-5.78-.77-11.57-1.16-17.35-.13-1.87-.24-3.74-.44-5.61-.12-1.07-.96-1.56-2.13-1.41-.98.13-1.64.86-1.58,1.81.23,3.67.47,7.34.71,11,.28,4.28.57,8.57.86,12.85.1,1.53.18,3.05.32,4.58.11,1.28.82,1.87,2.06,1.78,1.25-.09,1.75-.77,1.7-2.21Zm17.65-27.12s0,0-.01,0c0-.1.01-.2.02-.3.07-1.27-.5-1.94-1.77-2.05-1.16-.1-1.91.53-2.01,1.76-.27,3.44-.52,6.89-.79,10.33-.32,4.03-.65,8.06-.97,12.1-.16,1.97-.33,3.93-.46,5.9-.07,1.05.62,1.81,1.65,1.89,1.27.1,1.99-.45,2.11-1.61.05-.47.09-.93.13-1.4.32-4.06.63-8.11.95-12.17.38-4.82.77-9.64,1.16-14.46Z"/><path class="cls-1" d="m39.15,15.97c-.04-.62-.05-1.23-.14-1.84-.09-.66.19-.78.79-.78,1.7.02,3.13.79,4.57,1.55.38.2.42.44.2.77-.36.53-.71,1.07-1.1,1.58-.37.48-.35.71.28.92,4.12,1.39,8.22,2.8,12.33,4.21,1.66.57,2.02,1.33,1.45,3-.1.28-.2.56-.3.84-.45,1.27-.45,1.26-1.76.81-10.22-3.51-20.44-7.02-30.67-10.52-.62-.21-.87-.47-.59-1.12.22-.52.37-1.07.57-1.6.47-1.25,1.31-1.69,2.56-1.26,3.69,1.25,7.38,2.53,11.07,3.79.34.11.8.43.74-.34Z"/></g></g></g></svg>