<?xml version="1.0" encoding="UTF-8"?><svg id="Capa_1" xmlns="http://www.w3.org/2000/svg" width="184.99" height="176.5" viewBox="0 0 184.99 176.5"><defs><style>.cls-1{fill:#fff;}</style></defs><path class="cls-1" d="m165.01,57.12c-12.46-7.72-24.92-15.44-37.38-23.16-6.23-3.86-12.46-7.72-18.69-11.58-3.11-1.93-6.23-3.86-9.34-5.79-2.17-1.34-4.44-3.33-7.12-3.31-2.44.01-4.27,1.55-6.27,2.79-3.4,2.11-6.8,4.21-10.19,6.32-6.23,3.86-12.46,7.72-18.69,11.58-12.46,7.72-24.92,15.44-37.38,23.16-5.46,3.38-.44,12.04,5.05,8.63,11.61-7.19,23.22-14.39,34.83-21.58,5.66-3.51,11.33-7.02,16.99-10.53,3.11-1.93,6.23-3.86,9.34-5.79,1.13-.7,2.27-1.4,3.4-2.11-.17.1,4.45-2.48,2.92-2.48-1.61,0,1.63,1.67,2.07,1.95,1.42.88,2.83,1.75,4.25,2.63,2.83,1.75,5.66,3.51,8.49,5.26,5.66,3.51,11.33,7.02,16.99,10.53,11.89,7.37,23.78,14.74,35.68,22.1,5.49,3.4,10.51-5.25,5.05-8.63h0Z"/><path class="cls-1" d="m152.49,153.29H32.49c-6.43,0-6.45,10,0,10h120c6.43,0,6.45-10,0-10h0Z"/><g><path class="cls-1" d="m52.21,73.54c3.62,5.17,6.94,11.06,6.54,17.59-.36,5.88-3.96,10.29-6.81,15.17-7.17,12.26-4.14,24.74,4.31,35.45,3.98,5.05,11.02-2.07,7.07-7.07-4.17-5.28-7.13-12.06-4.94-18.79,1.71-5.23,5.72-9.47,7.93-14.5,5.02-11.42,1.4-23.12-5.47-32.9-3.67-5.23-12.34-.24-8.63,5.05h0Z"/><path class="cls-1" d="m86.51,73.54c3.62,5.17,6.94,11.06,6.54,17.59-.36,5.88-3.96,10.29-6.81,15.17-7.17,12.26-4.14,24.74,4.31,35.45,3.98,5.05,11.02-2.07,7.07-7.07-4.17-5.28-7.13-12.06-4.94-18.79,1.71-5.23,5.72-9.47,7.93-14.5,5.02-11.42,1.4-23.12-5.47-32.9-3.67-5.23-12.34-.24-8.63,5.05h0Z"/><path class="cls-1" d="m120.8,73.54c3.62,5.17,6.94,11.06,6.54,17.59-.36,5.88-3.96,10.29-6.81,15.17-7.17,12.26-4.14,24.74,4.31,35.45,3.98,5.05,11.02-2.07,7.07-7.07-4.17-5.28-7.13-12.06-4.94-18.79,1.71-5.23,5.72-9.47,7.93-14.5,5.02-11.42,1.4-23.12-5.47-32.9-3.67-5.23-12.34-.24-8.63,5.05h0Z"/></g></svg>