<?xml version="1.0" encoding="UTF-8"?><svg id="Capa_2" xmlns="http://www.w3.org/2000/svg" width="400" height="400" xmlns:xlink="http://www.w3.org/1999/xlink" viewBox="0 0 400 400"><defs><style>.cls-1{fill:#fff;}.cls-2{fill:url(#Degradado_sin_nombre_7);}</style><radialGradient id="Degradado_sin_nombre_7" cx="200" cy="200" fx="200" fy="200" r="200" gradientUnits="userSpaceOnUse"><stop offset="0" stop-color="#000" stop-opacity=".9"/><stop offset="1" stop-color="#000" stop-opacity="0"/></radialGradient></defs><g id="Capa_1-2"><g><rect class="cls-2" width="400" height="400"/><path class="cls-1" d="m199.98,241.19c-6.59,0-13.17,0-19.76,0-1.83,0-3.62-.22-5.24-1.15-3.12-1.79-4.92-4.46-4.94-8.07-.06-11.32-.03-22.64-.02-33.96,0-4.73,3.57-8.69,8.28-9.25.16-.02.32-.06.49-.07,1.12-.12,1.18-.12,1.1-1.28-.14-2.18-.05-4.36.03-6.54.19-4.83,1.35-9.41,3.96-13.52,2.97-4.68,7.29-7.35,12.76-8.23,2.98-.48,5.94-.44,8.88.22,5.51,1.24,9.58,4.38,12.28,9.32,1.6,2.92,2.4,6.06,2.57,9.38.11,2.26.16,4.52.19,6.78.01,1.05-.03,2.1-.08,3.14-.02.49.11.68.63.72,2.94.19,5.33,1.47,7.08,3.84,1.18,1.59,1.81,3.4,1.81,5.41,0,11.3.01,22.6,0,33.9,0,4.58-3.33,8.46-7.85,9.19-.81.13-1.64.15-2.46.15-6.57.01-13.13,0-19.7,0Zm.22-52.53c4.01,0,8.03,0,12.04,0,.16,0,.33,0,.49,0,.22,0,.32-.08.32-.33,0-.99.03-1.97.06-2.96.05-2.06-.02-4.12-.13-6.17-.12-2.01-.35-4.01-1.19-5.89-1.36-3.04-3.45-5.27-6.67-6.35-2.3-.77-4.65-.79-7.02-.52-1.87.22-3.62.81-5.15,1.92-3.4,2.47-4.67,6.13-5.32,10.03-.52,3.14-.28,6.32-.29,9.49,0,.62.17.8.8.8,4.01-.03,8.03-.01,12.04-.01Zm-.23,38.91s0-.02,0-.04c1.3,0,2.59.01,3.89,0,.99-.01.96-.02.81-.98-.57-3.55-1.12-7.1-1.69-10.65-.05-.34-.03-.57.31-.76,2.87-1.63,4.15-4.12,3.64-7.37-.45-2.84-2.17-4.72-4.92-5.52-2.73-.8-5.2-.11-7.07,2-3.07,3.47-2.26,8.32,1.69,10.75.46.28.54.57.45,1.06-.66,3.64-1.28,7.28-1.95,10.92-.1.54.1.59.53.59,1.44-.01,2.88,0,4.32,0Z"/></g></g></svg>