<?xml version="1.0" encoding="UTF-8"?><svg id="Capa_2" xmlns="http://www.w3.org/2000/svg" width="60" height="88.39" viewBox="0 0 60 88.39"><defs><style>.cls-1{fill:#fff;}</style></defs><g id="Capa_1-2"><path class="cls-1" d="m58.19,39.73c-1.21-1.62-2.84-2.86-4.79-3.44-2.34-.7-4.92-.57-7.35-.55-3.35.02-6.7.11-10.05.11h-5.8c-4.01,0-8.02-.01-12.04.02-.62,0-.8-.18-.8-.8,0-3.17-.24-12.36.29-15.49.65-3.91,1.91-7.56,5.32-10.03,1.53-1.12,3.28-1.71,5.14-1.92,2.37-.28,4.72-.26,7.02.51,3.21,1.08,5.31,3.32,6.67,6.36.84,1.88,1.07,3.88,1.18,5.89.06,1.05.11,3.68.13,6.28h7.4c-.03-2.95-.07-6.15-.14-7.43-.16-3.33-.97-6.46-2.57-9.38-2.69-4.93-6.77-8.08-12.28-9.32-2.94-.66-5.9-.7-8.88-.22-5.47.87-9.79,3.54-12.76,8.23-2.61,4.11-3.77,8.68-3.96,13.51-.08,2.18-.17,10.36-.03,12.54.07,1.16.02,1.17-1.1,1.28-.17.02-.33.06-.49.08C3.59,36.51.03,40.48.02,45.2c-.01,11.32-.04,22.64.02,33.96.02,3.61,1.82,6.29,4.94,8.07,1.63.93,3.42,1.15,5.25,1.15h19.76c6.56,0,13.13.01,19.69-.01.82,0,1.66-.01,2.46-.15,4.52-.73,7.85-4.61,7.86-9.18.01-11.3,0-22.6,0-33.9,0-2.01-.63-3.82-1.81-5.41Zm-24.9,22.61c-.34.19-.36.42-.31.76.57,3.55,1.12,7.1,1.69,10.65.16.95.18.96-.81.97-1.29.02-2.59.01-3.88.01v.03c-1.44,0-2.88,0-4.32.01-.43,0-.63-.05-.53-.59.67-3.63,1.29-7.28,1.95-10.92.09-.49,0-.77-.45-1.06-3.95-2.43-4.77-7.28-1.69-10.75,1.87-2.11,4.33-2.8,7.07-2,2.75.8,4.47,2.68,4.92,5.52.51,3.25-.77,5.73-3.64,7.37Z"/></g></svg>