<?xml version="1.0" encoding="UTF-8"?><svg id="Capa_2" xmlns="http://www.w3.org/2000/svg" width="400" height="129.76" xmlns:xlink="http://www.w3.org/1999/xlink" viewBox="0 0 400 129.76"><defs><style>.cls-1{fill:#fff;}.cls-2{fill:url(#Degradado_sin_nombre_16);}</style><linearGradient id="Degradado_sin_nombre_16" x1="0" y1="64.88" x2="400" y2="64.88" gradientUnits="userSpaceOnUse"><stop offset="0" stop-color="#e81f76"/><stop offset=".5" stop-color="#417099"/><stop offset="1" stop-color="#00aec3"/></linearGradient></defs><g id="Capa_1-2"><g><rect class="cls-2" x="0" y="0" width="400" height="129.76" rx="64.88" ry="64.88"/><g><path class="cls-1" d="m128.01,53.94c-2.34-12.54-9.94-20.38-22.05-23.93-11.29-3.31-22.69-2.4-34.15-.8-4.43.62-5.83,2.79-5.75,7,.16,9.65.05,19.31.05,28.96,0,10.16,0,20.31,0,30.47-.01,2.88.4,5.23,4.06,5.66,12.34,1.46,24.61,1.49,36.63-2,10.76-3.12,17.69-10.34,20.67-21.11,2.2-7.99,2.05-16.16.54-24.25Zm-15.59,19.17c-1.81,10.27-7.86,15.65-18.27,16.49-12.21.98-12.41.81-12.4-11.17v-13.46h0c0-6.48.15-12.96-.06-19.44-.13-3.69,1.51-4.92,4.94-5.25,17.46-1.67,26.42,6.3,26.54,23.91.02,2.98-.22,5.99-.74,8.92Z"/><path class="cls-1" d="m191.95,34.79c.04,4.72-1.65,6.76-6.44,6.44-3.65-.24-7.34.19-10.98-.11-4.36-.36-5.85,1.26-5.79,5.66.2,15.8.11,31.61.04,47.42-.01,2.36.97,5.76-2.16,6.48-3.96.92-8.33,1.58-12.12-.67-1.91-1.13-1.25-3.65-1.26-5.59-.04-15.81-.17-31.62.06-47.43.07-4.64-1.52-6.22-6.05-5.87-4.14.32-8.32-.01-12.48.06-4.77.08-4.62-3.19-4.65-6.5-.04-3.29.33-6.02,4.67-5.98,8.65.09,17.31.03,25.96.03v-.02c8.32,0,16.65.15,24.96-.06,4.5-.11,6.2,1.62,6.24,6.14Z"/><path class="cls-1" d="m204.7,101.17c-3.94.01-4.61-2.37-4.6-5.58.04-10.32.01-20.65.01-30.97h-.01c0-9.82.14-19.65-.07-29.47-.1-4.62,1.4-6.62,6.3-6.53,12.81.23,25.64.24,38.46-.01,5-.09,6.21,2.1,6.24,6.62.02,4.64-1.9,6.13-6.32,6.01-7.98-.21-15.98.11-23.97-.13-3.97-.12-5.68,1-5.76,5.26-.22,11.34-.38,11.34,10.95,11.33,5,0,10,.14,14.99,0,4.62-.14,4.98,2.71,4.95,6.22-.02,3.43-.18,6.39-4.87,6.3-6.82-.13-13.65.1-20.47-.05-3.81-.08-5.44,1.47-5.48,5.27-.13,15.98-.43,12.98,12.48,13.23,6.49.12,12.99.13,19.48.01,4.29-.08,4.83,2.49,4.75,5.87-.08,3.28.15,6.6-4.6,6.6-14.16-.01-28.31-.03-42.46.02Z"/><path class="cls-1" d="m333.92,77.48c-.41-10.24-6.47-16.9-17.05-19.08-6.12-1.27-11.94-.58-17.54,2.02-2.41,1.12-3.63,1.22-3.57-2.07.21-10.93,7.49-18.64,18.43-19.08,3.15-.13,6.35-.01,9.47.4,6.22.83,6.46.59,6.58-5.5.06-3.37-1.37-4.95-4.5-5.38-3.29-.44-6.59-.86-9.89-1.3-18.77.14-31.42,10.13-34.29,27.77-1.11,6.88-1.52,13.82-.55,20.88,2.7,19.69,17.85,30,37.03,24.8,10.92-2.96,16.37-11.02,15.88-23.46Zm-18.59,11.78c-5.28,2.89-12.97,1.41-16.3-3.13-.1-.14-.2-.27-.28-.42-2.07-3.87-4.22-8.17-2.2-12.29,2.06-4.19,6.89-3.97,10.21-4.19,7.4-.01,10.97,1.93,12.63,6.4,1.96,5.26.15,11.33-4.06,13.63Z"/></g></g></g></svg>