<?xml version="1.0" encoding="UTF-8"?><svg id="Capa_1" xmlns="http://www.w3.org/2000/svg" width="184.99" height="176.5" viewBox="0 0 184.99 176.5"><defs><style>.cls-1{fill:#fff;}</style></defs><path class="cls-1" d="m165.98,84.76c-1.45,18.38-2.9,36.75-4.35,55.13-.84,10.62-6.01,20.7-18.29,20.05-6.02-.32-12.04-.95-18.05-1.42l-69.52-5.48-22.99-1.81c-10.9-.86-17.68-8.64-17.02-19.86,1.14-19.52,3.08-39.02,4.61-58.52.27-3.47-5.14-3.46-5.41,0-1.51,19.12-3.11,38.24-4.52,57.36-.94,12.69,6.09,24.84,19.6,26.21,5.41.55,10.86.86,16.29,1.28,24.47,1.93,48.94,3.86,73.41,5.79,7.58.6,15.16,1.25,22.75,1.79,12.7.91,22.73-8.2,24.17-20.75,2.27-19.82,3.17-39.89,4.74-59.78.27-3.47-5.14-3.46-5.41,0h0Z"/><path class="cls-1" d="m99.89,100.59l-.86,10.96c-.23,2.92-.59,3.55-4.19,3.48-1.72-.03-3.46-.27-5.17-.41-1.57-.12-3.51.03-5.04-.46-2.94-.94-2.5-1.88-2.31-4.35.29-3.65.58-7.31.86-10.96l-1.34,2.34.17-.12c2.32-1.59,1.3-4.75-1.37-5.04-15.86-1.74-34.27-2.49-48.19-11.2-11.96-7.48-16.51-21.74-12.47-35.09,3.07-10.15,11.37-15.22,21.51-14.42l19.67,1.55c21.01,1.66,42.03,3.31,63.04,4.97l23.4,1.85c6.39.5,12.18.75,17,5.92,11.78,12.63,4.26,36.03-9.5,43.78-7.98,4.49-17.59,5.37-26.57,5.53-4.5.08-8.99-.08-13.48-.33-4-.22-8.48-1.16-12.45-.7-3.42.39-3.46,5.81,0,5.41,3.72-.43,7.96.45,11.7.66,4.74.27,9.49.45,14.23.37,8.51-.14,17.3-1,25.23-4.31,14.1-5.89,21.89-20.28,21.89-35.21,0-13.08-8.72-24.79-22.07-26.06-6.2-.59-12.43-.98-18.65-1.47-23.49-1.85-46.99-3.7-70.48-5.56l-23.12-1.82c-10.17-.8-19.22,3.48-24.22,12.71-7.62,14.06-4.29,32.99,7.81,43.37,14.79,12.69,37.33,13.44,55.73,15.46l-1.37-5.04c-1.78,1.22-1.57,3.22-1.72,5.16-.25,3.21-.63,6.44-.76,9.66-.27,6.63,5.37,8.23,11.03,8.68,5.38.42,14.57,2.26,16.3-4.91,1.09-4.53.81-9.75,1.17-14.39.27-3.47-5.14-3.46-5.41,0Z"/><path class="cls-1" d="m124.72,35.51l.92-11.68c.1-1.27-.93-2.2-1.99-2.61-16.57-6.45-34.59-7.75-51.95-3.98-1.23.27-1.9,1.46-1.99,2.61l-.92,11.68c-.27,3.47,5.14,3.46,5.41,0,.31-3.89.61-7.78.92-11.68l-1.99,2.61c16.45-3.57,33.4-2.12,49.07,3.98l-1.99-2.61c-.31,3.89-.61,7.78-.92,11.68-.27,3.47,5.14,3.46,5.41,0h0Z"/></svg>