<?xml version="1.0" encoding="UTF-8"?><svg id="Capa_2" xmlns="http://www.w3.org/2000/svg" width="88" height="50.27" viewBox="0 0 88 50.27"><defs><style>.cls-1{fill:#00adc1;}.cls-2{fill:#fff;}</style></defs><g id="Capa_1-2"><g><g><path class="cls-1" d="m54.13,24.28l-.04.41c.34-.06.67-.14.98-.23-.3-.07-.61-.13-.94-.18Z"/><g><path class="cls-2" d="m55.46,25.87c8.75-2.96,11.38-14.92,4.27-21.21C51.91-2.25,37.4.04,28.16,1.96c-.62.13-1.07.8-1.07,1.41v44.29c0,.86.67,1.37,1.46,1.46,9.87,1.18,25.65,3.33,33.27-4.93,6.72-7.28,2.73-18.73-6.36-21.13-1.82-.48-2.6,2.34-.78,2.82,5.56,1.47,8.53,6.25,7.16,11.95-1.24,5.16-5.77,7.42-10.59,8.44-7.39,1.56-15.28.82-22.7-.07l1.46,1.46V3.36l-1.07,1.41c7.09-1.47,14.91-2.33,22.08-.85,3.45.71,7.03,2.11,8.74,5.43,2.65,5.17.53,11.81-5.07,13.7-1.77.6-1.01,3.42.78,2.82h0Z"/><path class="cls-2" d="m38.61,11.07c3.19-.53,7.31-1.12,10.42.07,1.77.68,2.5,2,2.5,3.88,0,2.44-1.44,3.73-3.7,4.21-3.04.64-6.52.24-9.61.24l1.46,1.46v-11.27c0-1.88-2.92-1.88-2.92,0v11.27c0,.79.67,1.46,1.46,1.46,4.89,0,13.53,1.37,15.73-4.38,1.2-3.13.4-7.31-2.65-9.05-3.84-2.2-9.34-1.39-13.47-.7-1.85.31-1.07,3.12.78,2.82Z"/><path class="cls-2" d="m52.37,37.35c-2.97,3.63-10.06,2.45-14.16,2.14l1.46,1.46v-12.53l-1.46,1.46c2.17,0,4.33,0,6.5,0,1.52,0,3.06-.03,4.54.33,3.44.84,4.66,4.36,2.88,7.43-.94,1.63,1.58,3.1,2.52,1.48,2.99-5.16.22-10.9-5.51-11.89-3.54-.61-7.36-.27-10.95-.27-.79,0-1.46.67-1.46,1.46v12.53c0,.83.67,1.4,1.46,1.46,4.98.37,12.61,1.43,16.22-3,1.18-1.45-.88-3.52-2.07-2.07Z"/></g></g><path class="cls-2" d="m62.47,35.74c4.99,8.49,15.85,9.51,24.61,7.03.53-.15.92-.65.92-1.21v-6.15c0-.82-.8-1.41-1.58-1.21-3.36.87-7.47,1.68-10.87.44-4.11-1.5-5.04-5.6-5.04-9.49,0-3.47.73-6.64,3.74-8.61,3.43-2.24,8.41-1.47,12.17-.68.79.17,1.58-.35,1.58-1.21v-6.16c0-.52-.39-1.1-.92-1.21-6.74-1.39-14.83-1.57-20.56,2.86-5.63,4.35-6.64,11.67-6.09,18.32.13,1.59,2.63,1.61,2.5,0-.75-9.13,2.31-17.58,12.29-19.25,2.02-.34,4.12-.38,6.16-.26,1.68.98,3.06.88,4.12-.3v1.16c.46,1.28,0,3.45,0,4.83l1.58-1.21c-9.89-2.08-19.03.15-19.07,11.7s9.11,14.03,19.07,11.47l-1.58-1.21v3.53c0,.47.24,1.56,0,1.98-.19.34.21-.14-1.4.02-7.34.74-15.22.75-19.47-6.47-.82-1.39-2.98-.13-2.16,1.26h0Z"/><g><path class="cls-2" d="m14.57,27.55c1.52-4.96,3.03-9.93,4.55-14.89h-2.41c1.52,4.96,3.04,9.93,4.56,14.89l1.21-1.58h-9.11c-1.61,0-1.61,2.5,0,2.5h9.11c.79,0,1.44-.8,1.21-1.58-1.52-4.96-3.04-9.93-4.56-14.89-.36-1.19-2.05-1.19-2.41,0-1.52,4.96-3.03,9.93-4.55,14.89-.47,1.54,1.94,2.2,2.41.66Z"/><path class="cls-2" d="m29.75,23.12c-1.68-5.26-3.35-10.52-5.03-15.78-.17-.53-.64-.92-1.21-.92h-11.1c-.57,0-1.04.39-1.21.92C7.49,19.01,3.77,30.68.05,42.34c-.25.78.42,1.58,1.21,1.58h7.39c.56,0,1.04-.39,1.21-.92.68-2.21,2.81-6.13,2.55-8.37-.17-1.51,1.45-.16-.82-.05.34-.02.94-.07,1.24,0,1.51.37,3.53,0,5.09,0s3.6.37,5.09,0c.35-.09.89-.03,1.24,0-1.37-.12-.65-1.47-.81.05-.25,2.24,1.89,6.17,2.56,8.37.47,1.53,2.88.88,2.41-.66-.95-3.11-1.91-6.23-2.86-9.34-.16-.53-.64-.92-1.21-.92h-12.86c-.56,0-1.04.39-1.21.92-.83,2.73-2.56,6.06-2.71,8.89-.03.52,1.2-.24.52-.46-.61-.2-1.57,0-2.23,0H1.26l1.21,1.58c3.51-11.02,7.03-22.04,10.54-33.06.18-.55.53-1.22.58-1.81.02-.26-1.67.54-.74.79.55.14,1.34,0,1.89,0h5.61c.61,0,1.74.24,2.26,0,1.23-.58.5,1.45-.27-.84,1.75,5.21,3.34,10.47,5.01,15.71.49,1.53,2.9.87,2.41-.66h0Z"/></g></g></g></svg>