<?xml version="1.0" encoding="UTF-8"?><svg id="Capa_2" xmlns="http://www.w3.org/2000/svg" width="62.21" height="87.02" viewBox="0 0 62.21 87.02"><defs><style>.cls-1{fill:#fff;}</style></defs><g id="Capa_1-2"><g><path class="cls-1" d="m51.66,19.29c-.1.19-.2.36-.29.53-.08.16-.17.31-.26.47-1.86,3.37-3.82,6.05-5.46,8.06-.5.61-.97,1.16-1.4,1.64-.38-.5-.79-1.06-1.23-1.67-1.58-2.19-3.51-5.07-5.52-8.56-.14-.25-.28-.48-.4-.72-.86-1.53-2.36-4.24-2.76-6.55-.32-1.79-.15-4.28,1.13-6.55-.27.19-.53.13-.79-.1-1.49,2.54-1.69,5.35-1.33,7.35.44,2.54,2.09,5.53,3.03,7.21.14.26.29.53.44.79,2.22,3.85,4.34,7.01,6.08,9.43.48.67.93,1.28,1.35,1.84.47-.54.99-1.14,1.54-1.82,1.81-2.21,3.96-5.16,6.01-8.85.1-.18.19-.36.29-.52.22-.39.46-.84.72-1.33-.38-.23-.76-.44-1.15-.65Z"/><path class="cls-1" d="m61.92,36.32c-.03-.4-.14-.79-.4-1.11-.11-.14-.21-.22-.42-.13-1.05.45-2.04.3-2.96-.34-.73-.51-1.24-1.2-1.72-1.93-.41-.62-.72-1.26-.82-2.02-.11-.85.29-1.59.52-2.35.27-.86.97-1.5,1.53-2.2.35-.43.34-.83.09-1.33-1.13-2.27-2.91-3.76-4.93-4.97-.26.49-.5.94-.72,1.33-.1.16-.19.34-.29.52-2.05,3.69-4.2,6.64-6.01,8.85-.55.68-1.07,1.28-1.54,1.82-.42-.56-.87-1.17-1.35-1.84-1.74-2.42-3.86-5.58-6.08-9.43-.15-.26-.3-.53-.44-.79-.94-1.68-2.59-4.67-3.03-7.21-.36-2-.16-4.81,1.33-7.35h0c-.3-.29-.61-.51-1.05-.49-.24,0-.46-.16-.49-.43-.03-.36-.28-.49-.55-.64-.69-.4-1.42-.73-1.9-1.42-.12-.18-.31-.31-.52-.37-.28-.07-.47-.21-.57-.5-.12-.36-.38-.38-.66-.17-.34.26-.55.59-.6,1.01-.04.27-.15.48-.36.63-.36.25-.49.58-.5,1.02-.03.75-.73,1.39-1.24,1.06-.66-.43-1.3-.62-2.05-.65-.03,0-.06-.03-.09-.04-.62-.3-1-.16-1.17.49-.11.39-.34.67-.59.97-1.69,1.93-3.63,3.62-5.28,5.59-.41.48-.88.9-1.34,1.34-.17.17-.38.32-.61.29-1.04-.11-2.06.17-3.1.05-.82-.1-1.65-.12-2.49-.03-.87.1-1.67.47-2.59.44-2.08-.07-4.16-.02-6.25-.02-.41,0-.72.13-.66.59.15,1.15-.01,2.29,0,3.44,0,3.18.06,6.36.06,9.55,0,7.29-.01,14.59-.01,21.89,0,8.83.01,17.66.01,26.49,0,2.22,0,4.43,0,6.65q0,.93.91,1.03c.08.01.17.01.25.01.73.02,1.4.23,2.03.62.93.57,1.62,1.36,2.17,2.3.32.54.51.59,1.06.32.85-.41,1.7-.78,2.59-1.07.68-.22,1.1-.64,1.3-1.32.11-.4.18-.88.77-.9.09,0,.17-.1.18-.21,0-.08-.03-.14-.1-.14-.68.01-.25-.32-.13-.48.22-.33.26-.59-.09-.86-.19-.15-.37-.32-.57-.46-.6-.43-1.15-.9-1.44-1.62-.16-.41-.11-.69.26-.92.1-.06.18-.17.31-.1.13.08.08.2.05.31-.08.28-.11.57.18.71.33.15.31-.27.48-.38.39.29.56.25.67-.15.11-.43-.15-.48-.47-.5-.15-.02-.49.04-.32-.23.2-.33.19-.56-.01-.86-.1-.15-.09-.38,0-.53.13-.24.06-.42-.01-.65-.32-1.01.23-1.62,1.22-1.38.46.12.56-.1.56-.49,0-1.05-.03-2.09.08-3.14.07-.73.57-1.37.38-2.13,0-.04.08-.09.14-.12.44-.28.47-.56.09-.93-.29-.26-.64-.41-.99-.57-.42-.2-.94-.32-1.18-.76-.28-.5-.1-1.36.3-1.78.49-.52.47-.61-.17-.9-.29-.13-.46-.31-.44-.65.02-.33.18-.58.49-.68.31-.09.69-.14.88.17.21.35.53.52.86.71.43.25.92.36,1.35.62.49.29,1.04.35,1.56-.03.17-.13.35-.1.51.02.44.31.93.31,1.44.27.99-.09,1.99-.2,2.98.02.43.09.86.07,1.29.01,1.25-.16,2.49-.41,3.74-.62,3.08-.52,6.18-.99,9.25-1.6,5.9-1.18,11.62-2.89,17.01-5.61.84-.43,1.45-1.1,2.1-1.75.45-.44.67-.92.63-1.56-.12-1.62.87-2.72,1.95-3.68.72-.64,1.48-1.21,1.94-2.05,1.16-2.09,2.51-4.06,3.81-6.05.18-.27.3-.55.28-.88-.1-1.55-.18-3.1-.29-4.64Zm-35.37.92c-.18,3.12-1.79,6.14-2.8,7.94-.09.15-.17.31-.26.47-1.86,3.36-3.82,6.04-5.46,8.05-.5.61-.97,1.16-1.4,1.65-.38-.51-.79-1.06-1.23-1.67-1.58-2.2-3.51-5.07-5.52-8.57-.14-.24-.28-.48-.4-.72-.86-1.53-2.36-4.24-2.76-6.55-.38-2.12-.07-5.24,1.98-7.8,3.05-3.81,7.83-3.76,8.17-3.75.51.02,4.32.18,7.14,3.25,2.8,3.06,2.59,6.82,2.54,7.7Z"/><path class="cls-1" d="m16.62,41.95c-3.05,0-5.51-2.51-5.51-5.61s2.46-5.61,5.51-5.61,5.51,2.51,5.51,5.61-2.47,5.61-5.51,5.61Z"/><path class="cls-1" d="m52.36,3.46c-4.86-4.53-12.59-4.92-16.96.71-6.51,8.39,3,19.73,7.93,26.37.37.5,1.16.77,1.65.21,6.17-7.14,14.46-18.21,7.38-27.29-.83-1.06-2.3.43-1.48,1.48,6.12,7.85-2.19,18.32-7.38,24.33l1.65.21c-3.59-4.83-9.51-11.89-9.89-18.12-.55-9.05,9.97-11.69,15.63-6.42.99.92,2.47-.56,1.48-1.48Z"/><path class="cls-1" d="m44.24,16.6c-3.05,0-5.51-2.51-5.51-5.61s2.46-5.61,5.51-5.61,5.51,2.51,5.51,5.61-2.47,5.61-5.51,5.61Z"/></g></g></svg>