<?xml version="1.0" encoding="UTF-8"?><svg id="Capa_2" xmlns="http://www.w3.org/2000/svg" width="70" height="70.79" viewBox="0 0 70 70.79"><defs><style>.cls-1{fill:#fff;}.cls-2{fill:none;}</style></defs><g id="Capa_1-2"><g><g><path class="cls-1" d="m38.78,3.38c-2.11-.29-3.27-2.82-5.32-3.35-.37-.09-.77.06-.96.39-1.23,2.08-1.29,2.32-3.59,1.98-.41-.06-.73.05-.96.39-1.99,2.88-4.89,6.45-8.48,6.77-2.48.22-5.01.23-7.52.31-5.06.17-3.08,4.56-3.05,8.99.06,8.54,0,17.07,0,25.61,0,7.47-.88,15.55.14,22.95.04.28.34.53.6.6,2.39.61,3.38,2.95,5.68,2.77,2.1-.17,3.06-1.68,4.21-3.02.23-.27.36-.71.13-1.03-.2-.29-.36-.41-.68-.56l.17,1.34c.29-.37.82-1.17.35-1.66-.52-.54-3.19-3.5-2.64-1.35.11.44.61.73,1.05.6,1.07-.33.39-.12.3-.16.36.15.77-.11.96-.39.32-.46.31-.72.21-1.26-.05-.28-.33-.53-.6-.6-.47-.11-.07-1.34.53-1.41.37-.04.73-.23.82-.63.33-1.33-.23-3.65.64-4.71.25-.31.32-.67.13-1.03-.49-.93-2.21-1.33-1.46-2.51.26-.42.06-.91-.31-1.17.43.31.7,1.14,1.8,1.5.87.28,1.89.13,2.77.15,3.9.05,7.6-.62,11.45-1.3,4.92-.86,9.76-2.03,14.36-4.01s4.2-3.45,6.91-7.36c2.38-3.42,7.48-8.79,3.53-13.02-1.54-1.65-3.98.15-3.2-3.71.04-.19.81-2.54.72-3.3-.31-2.78-3.05-4.54-5.33-5.85-.95-.55-1.81.93-.86,1.47,2.18,1.25,4.31,2.33,3.86,5.33-.04.28-.86,1.7-.94,2.08-.3,1.58.18,2.93,1.27,4.13.93,1.03,2.05.85,2.9,1.58,3.51,3.01-2.32,8.64-4,10.88-1.78,2.37-2.02,4.32-4.88,5.93-4.06,2.28-9.31,3.2-13.85,4.04-4.22.78-8.58,1.76-12.88,1.21-1.48-.19-2.75-.93-4.2-1.21-.41-.08-.73.06-.96.39l-.4.55c-.17.23-.16.63,0,.86,1.24,1.83-.36-.4.08,1.3.34,1.33.13.92.82,2.03.23.36,1.14.26,1.12.23.01.03-.34.38-.29.54,0-.02-.25,2.05-.36,2.48-.36,1.47,1.16,1.29-.76,1.67-.39.08-.59.46-.63.82-.1.96-.2,2.04-.02,3,.07.39.47.6.82.63l.29-1.13c-.35-.15-.78.1-.96.39.82.29,1.15.18.98-.32-.07-.44-.65-.73-1.05-.6-2.83.91.69,3.67.68,3.69-.31.4-.38,1.07.17,1.34-.87-.42.14-1.11-.53-.49-.55.51-1,1.44-1.88,1.6-1.02.19-2.9-1.37-3.7-1.98-.31-.24-.94-.01-1.17-.24-.42-.41-.21-3.19-.21-3.61-.03-3.21,0-6.42,0-9.64,0-7.21,0-14.41,0-21.62,0-3.3.01-6.59,0-9.89,0-2.38-1.07-8.1.66-9.68,2.31-2.12,8.27.16,11.14-.98,1.59-.63,2.75-2.54,3.89-3.74.32-.33,2.67-3.22,2.73-3.24,1.06-.29,1.76,1.03,2.87.47.81-.41.61-1.54,1.27-1.98,1.35-.9,3.08,2.13,5.14,2.41,1.07.15,1.54-1.5.45-1.64h0Z"/><path class="cls-1" d="m29.23,23.39c-2.29-2.5-5.39-2.63-5.81-2.64-.28,0-4.16-.05-6.65,3.05-1.67,2.08-1.92,4.62-1.61,6.34.33,1.88,1.55,4.08,2.24,5.33.1.2.21.39.33.59,1.63,2.85,3.2,5.18,4.49,6.97.36.5.69.94,1,1.36.35-.4.73-.85,1.14-1.34,1.33-1.63,2.93-3.81,4.44-6.55.07-.13.14-.26.21-.38.82-1.46,2.13-3.92,2.28-6.46.04-.72.21-3.77-2.07-6.26Zm-6,10.08c-2.48,0-4.48-2.04-4.48-4.56s2-4.56,4.48-4.56,4.48,2.04,4.48,4.56-2.01,4.56-4.48,4.56Z"/><path class="cls-1" d="m51.69,2.78C49.4.28,46.3.15,45.89.13c-.28,0-4.16-.05-6.65,3.05-1.67,2.08-1.92,4.62-1.61,6.34.33,1.88,1.55,4.08,2.24,5.33.1.2.21.39.33.59,1.63,2.85,3.2,5.18,4.49,6.97.36.5.69.94,1,1.36.35-.4.73-.85,1.14-1.34,1.33-1.63,2.93-3.81,4.44-6.55.07-.13.14-.26.21-.38.82-1.46,2.13-3.92,2.28-6.46.04-.72.21-3.77-2.07-6.26Zm-6,10.08c-2.48,0-4.48-2.04-4.48-4.56s2-4.56,4.48-4.56,4.48,2.04,4.48,4.56-2.01,4.56-4.48,4.56Z"/></g><rect class="cls-2" y=".13" width="70" height="70"/></g></g></svg>