<?xml version="1.0" encoding="UTF-8"?><svg id="Capa_2" xmlns="http://www.w3.org/2000/svg" width="64.81" height="87.2" viewBox="0 0 64.81 87.2"><defs><style>.cls-1{fill:#fff;}</style></defs><g id="Capa_1-2"><g><path class="cls-1" d="m37.14,4.29c-1.71-.24-4.5-2.67-5.69-3.98-.24-.26-.68-.38-1.02-.27-1.2.4-1.19,1.36-1.98,2.25-1.27,1.43-1.55,1.08-3.45.8-.5-.07-.89.06-1.18.48-1.87,2.7-5.42,7.75-8.88,8.3s-7.65.24-11.31.4c-1.66.07-2.61-.24-3.24,1.37-.51,1.31-.02,4.21-.03,5.63,0,2.23.04,4.46.05,6.69.04,10.14-.01,20.28,0,30.42,0,8.68-1.02,18.08.17,26.68.05.34.42.65.73.73,2.92.75,4.17,3.67,6.99,3.4,2.59-.24,3.74-2.05,5.18-3.72.28-.33.44-.88.16-1.27-.25-.35-.45-.5-.84-.69l.21,1.65c.24-.31.97-1.21.69-1.64-.43-.66-1.38-2.7-2.45-2.36l-1.29-.73c.1.6-.06.75.34,1.27.28.37.7.63,1.18.48,1.32-.41.48-.15.36-.2.45.19.94-.13,1.18-.48.39-.57.38-.89.26-1.55-.06-.34-.4-.65-.73-.73-1.18-.29-.14.17.04-.44.22-.7-.35-1.19.61-1.3.46-.05.89-.29,1.01-.77.4-1.64-.28-4.48.79-5.79.31-.38.4-.82.16-1.27-.6-1.14-2.71-1.63-1.79-3.09.32-.51.07-1.11-.38-1.43.35.25.2.83.9,1.31.42.29,1.18.55,1.69.65,1.43.29,3.06-.07,4.51-.05,5.09.09,10.12-.98,15.13-1.95s10.13-2.33,14.91-4.38c1.88-.81,4.3-1.69,5.58-3.43s1.11-3.34,2.58-5.24c2.2-2.84,5.51-5.94,6.32-9.58.47-2.09.04-5.39-1.44-6.9-.26-.27-.63,0-.84-.15-1.35.21-2.56-.38-3.63-1.77l1.07-5.3c.12-.61.66-.97.54-1.66-.55-3.21-4.17-5.48-6.74-6.94-1.18-.67-2.23,1.14-1.06,1.81,2.35,1.33,5.45,3.06,4.9,6.34-.16.94-1.14,1.86-1.33,2.9-.38,2.14.59,4.19,2.22,5.6.85.73,1.71.72,2.65,1.33,2.19,1.41,1.54,4.2.47,6.43-1.75,3.67-4.94,6.31-6.72,9.81-2.6,5.12-9.38,6.56-14.73,7.92-5.06,1.29-10.33,2.26-15.51,2.93-2.34.3-4.96.32-7.3-.05-1.3-.2-2.5-.93-3.75-1.18-1.5-.29-1.79-.52-2.8.89-.2.28-.19.78,0,1.06.47.69.67.92,1.32,1.39l-.38-1.43c-.75,1.19-1.41,2.69-.21,3.82.37.35,1.82.73,1.75.6-.26-.47-.9,5.01-.72,2.65-.05.58.03,1.3-.12,1.85l.49,1.01-.83.03c-.18.25-.9.39-1.18.8-.62.9-.37,3.06-.16,4.13.09.47.58.74,1.01.77l.36-1.39c-.43-.18-.96.12-1.18.48.91-1.45,1.45,1.11,1.21-.39-.09-.54-.8-.89-1.29-.73-3.59,1.16.97,4.36.83,4.53-.38.49-.46,1.32.21,1.65-1.56-.76.37-1.17-.66-.6-.69.38-1.4,1.97-2.44,2.03-1.23.06-3.64-1.9-4.68-2.59-1.65-1.1-.91.37-1.45-1.86-.32-1.34,0-3.61,0-4.99,0-3.78,0-7.57,0-11.35,0-7.7,0-15.4,0-23.1,0-3.98.01-7.96,0-11.94,0-3.71-.63-7.88-.06-11.54.63-4.09,3.7-2.82,7.18-3.13,1.82-.17,5.36.3,7.14-.33,1.49-.53,2.4-1.95,3.43-3.05s2.21-2.15,3.22-3.3c.22-.25,1.6-2.23,1.79-2.32,1.83-.79,3.51,2.41,4.8-1.37.32-.93.5-1.52.51-1.52.45.03,1.74,1.48,1.78,1.52,1.38,1.15,2.46,2.2,4.28,2.45,1.32.18,1.89-1.84.56-2.02h0Z"/><path class="cls-1" d="m25.4,28.9c-2.82-3.07-6.63-3.23-7.14-3.25-.34-.01-5.12-.06-8.17,3.75-2.05,2.56-2.36,5.68-1.98,7.8.4,2.31,1.9,5.02,2.76,6.55.12.24.26.48.4.72,2.01,3.5,3.94,6.37,5.52,8.57.44.61.85,1.16,1.23,1.67.43-.49.9-1.04,1.4-1.65,1.64-2.01,3.6-4.69,5.46-8.05.09-.16.17-.32.26-.47,1.01-1.8,2.62-4.82,2.8-7.94.05-.88.26-4.64-2.54-7.7Zm-7.38,12.4c-3.05,0-5.51-2.51-5.51-5.61s2.46-5.61,5.51-5.61,5.51,2.51,5.51,5.61-2.47,5.61-5.51,5.61Z"/><path class="cls-1" d="m53.02,3.55c-2.82-3.07-6.63-3.23-7.14-3.25-.34-.01-5.12-.06-8.17,3.75-2.05,2.56-2.36,5.68-1.98,7.8.4,2.31,1.9,5.02,2.76,6.55.12.24.26.48.4.72,2.01,3.5,3.94,6.37,5.52,8.57.44.61.85,1.16,1.23,1.67.43-.49.9-1.04,1.4-1.65,1.64-2.01,3.6-4.69,5.46-8.05.09-.16.17-.32.26-.47,1.01-1.8,2.62-4.82,2.8-7.94.05-.88.26-4.64-2.54-7.7Zm-7.38,12.4c-3.05,0-5.51-2.51-5.51-5.61s2.46-5.61,5.51-5.61,5.51,2.51,5.51,5.61-2.47,5.61-5.51,5.61Z"/></g></g></svg>