<?xml version="1.0" encoding="UTF-8"?><svg id="Capa_2" xmlns="http://www.w3.org/2000/svg" width="80" height="80" viewBox="0 0 80 80"><defs><style>.cls-1{fill:#00adc1;}.cls-2{fill:#fff;}</style></defs><g id="Capa_1-2"><g><circle class="cls-1" cx="40" cy="40" r="40"/><g><path class="cls-2" d="m42.19,66.23c0,.74,0,1.48,0,2.22,0,.3-.1.53-.37.66-.27.14-.52.07-.75-.11-1.9-1.48-3.81-2.96-5.71-4.44-2.18-1.69-4.36-3.38-6.54-5.08-.33-.26-.66-.52-1-.78-.47-.37-.47-.82,0-1.19,1.16-.91,2.33-1.81,3.49-2.71,1.78-1.38,3.55-2.77,5.33-4.15,1.37-1.07,2.74-2.13,4.11-3.19.12-.09.24-.19.36-.28.23-.16.48-.18.72-.05.24.13.34.35.34.62,0,1.48,0,2.96,0,4.45,0,.33,0,.33.32.32,2.99-.05,5.79-.83,8.41-2.26,1.28-.69,2.46-1.52,3.55-2.47,1.7-1.47,3.15-3.17,4.36-5.07,1.53-2.41,2.62-5.01,3.31-7.78.03-.11.05-.23.16-.29.16-.08.34.01.38.23.06.36.11.73.15,1.1.14,1.31.21,2.63.18,3.96-.07,2.71-.5,5.36-1.33,7.94-.73,2.27-1.74,4.42-3.07,6.4-1.31,1.96-2.86,3.69-4.7,5.17-1.91,1.53-4.03,2.69-6.37,3.43-1.33.42-2.7.68-4.1.78-.35.02-.7.04-1.04.04-.17,0-.22.05-.22.23,0,.77,0,1.54,0,2.31Z"/><path class="cls-2" d="m37.81,13.77c0-.74,0-1.48,0-2.22,0-.3.1-.53.37-.66.27-.14.52-.07.75.11,1.9,1.48,3.81,2.96,5.71,4.44,2.18,1.69,4.36,3.38,6.54,5.08.33.26.66.52,1,.78.47.37.47.82,0,1.19-1.16.91-2.33,1.81-3.49,2.71-1.78,1.38-3.55,2.77-5.33,4.15-1.37,1.07-2.74,2.13-4.11,3.19-.12.09-.24.19-.36.28-.23.16-.48.18-.72.05-.24-.13-.34-.35-.34-.62,0-1.48,0-2.96,0-4.45,0-.33,0-.33-.32-.32-2.99.05-5.79.83-8.41,2.26-1.28.69-2.46,1.52-3.55,2.47-1.7,1.47-3.15,3.17-4.36,5.07-1.53,2.41-2.62,5.01-3.31,7.78-.03.11-.05.23-.16.29-.16.08-.34-.01-.38-.23-.06-.36-.11-.73-.15-1.1-.14-1.31-.21-2.63-.18-3.96.07-2.71.5-5.36,1.33-7.94.73-2.27,1.74-4.42,3.07-6.4,1.31-1.96,2.86-3.69,4.7-5.17,1.91-1.53,4.03-2.69,6.37-3.43,1.33-.42,2.7-.68,4.1-.78.35-.02.7-.04,1.04-.04.17,0,.22-.05.22-.23,0-.77,0-1.54,0-2.31Z"/></g></g></g></svg>