<?xml version="1.0" encoding="UTF-8"?><svg id="Capa_2" xmlns="http://www.w3.org/2000/svg" width="80" height="80" viewBox="0 0 80 80"><defs><style>.cls-1{fill:#00adc1;}.cls-2{fill:#fff;}</style></defs><g id="Capa_1-2"><g><circle class="cls-1" cx="40" cy="40" r="40"/><g><path class="cls-2" d="m54.11,17.47c1.14.17,1.85.98,2.6,1.74,1.61,1.62,3.23,3.23,4.85,4.85,1.25,1.25,1.25,2.73,0,3.98-.91.91-1.82,1.82-2.74,2.74-.1.1-.21.2-.31.28-3.18-3.21-6.34-6.4-9.5-9.59-.07-.01-.15-.02-.22-.03.18-.12.39-.22.54-.37.78-.76,1.56-1.51,2.3-2.3.59-.64,1.26-1.12,2.12-1.3h.35Z"/><path class="cls-2" d="m17.5,60.42c.13-.59.27-1.19.37-1.78.4-2.35.78-4.7,1.17-7.05,0-.04.04-.07.05-.08,3.14,3.15,6.28,6.29,9.44,9.46-.76.13-1.55.26-2.34.39-2.13.36-4.27.71-6.4,1.07-.07.01-.12.07-.19.1h-.79c-.63-.25-1.07-.69-1.32-1.32,0-.26,0-.53,0-.79Z"/><path class="cls-2" d="m32.17,57.26c-3.12-3.12-6.29-6.29-9.44-9.44,7.51-7.51,15.06-15.05,22.56-22.54,3.12,3.12,6.3,6.3,9.43,9.43-7.48,7.48-15.03,15.03-22.55,22.55Z"/></g></g></g></svg>