<?xml version="1.0" encoding="UTF-8"?><svg id="Capa_2" xmlns="http://www.w3.org/2000/svg" width="73.84" height="86.79" viewBox="0 0 73.84 86.79"><defs><style>.cls-1{fill:#fff;}</style></defs><g id="Capa_1-2"><g><path class="cls-1" d="m21.05,73.26H1.32l1.1,1.1V9.61c0-2.59-.82-5.88,2.65-6.95,2.31-.72,6.04,0,8.43,0h42.43l-1.1-1.1v40.45c0,1.42,2.2,1.42,2.2,0V1.55c0-.6-.5-1.1-1.1-1.1h-24.49C22.86.45,13.6-.56,5.07.45-1.57,1.24.22,9.78.22,14.55v59.81c0,.6.5,1.1,1.1,1.1h19.73c1.42,0,1.42-2.2,0-2.2h0Z"/><path class="cls-1" d="m72.74,84.58H21.78l1.1,1.1v-37.14c0-2.52.03-4.45,3.19-5.44,1.74-.55,4.57,0,6.38,0h40.29l-1.1-1.1c0,14.56,0,29.12,0,43.68,0,1.42,2.2,1.42,2.2,0,0-14.56,0-29.12,0-43.68,0-.6-.5-1.1-1.1-1.1H31.4c-4.39,0-10-.87-10.72,4.99s0,12.42,0,18.39v21.4c0,.6.5,1.1,1.1,1.1h50.96c1.42,0,1.42-2.2,0-2.2Z"/><g><rect class="cls-1" x="5.88" y="6.4" width="13.12" height="14.56"/><rect class="cls-1" x="22.06" y="6.4" width="13.12" height="14.56"/><rect class="cls-1" x="38.24" y="6.4" width="13.12" height="14.56"/></g><g><rect class="cls-1" x="5.88" y="24.83" width="13.12" height="14.56"/><rect class="cls-1" x="22.06" y="24.83" width="13.12" height="14.56"/><rect class="cls-1" x="38.24" y="24.83" width="13.12" height="14.56"/></g><rect class="cls-1" x="5.88" y="43.27" width="13.12" height="14.56"/><g><rect class="cls-1" x="25.62" y="46.43" width="12.49" height="9.87"/><rect class="cls-1" x="41.02" y="46.43" width="12.49" height="9.87"/><rect class="cls-1" x="56.42" y="46.43" width="12.49" height="9.87"/></g><g><rect class="cls-1" x="25.62" y="58.92" width="12.49" height="9.87"/><rect class="cls-1" x="41.02" y="58.92" width="12.49" height="9.87"/><rect class="cls-1" x="56.42" y="58.92" width="12.49" height="9.87"/></g><path class="cls-1" d="m42.7,85.69c0-3.89-1.42-12.15,4.56-12.15,5.98,0,4.56,8.26,4.56,12.15,0,1.42,2.2,1.42,2.2,0,0-5.28,1.14-14.39-6.77-14.35-7.91.04-6.77,9.01-6.77,14.35,0,1.42,2.2,1.42,2.2,0h0Z"/></g></g></svg>