<?xml version="1.0" encoding="UTF-8"?><svg id="Capa_2" xmlns="http://www.w3.org/2000/svg" width="80" height="80" viewBox="0 0 80 80"><defs><style>.cls-1{fill:#fff;}.cls-2{fill:none;stroke:#78568e;stroke-miterlimit:10;stroke-width:3px;}.cls-3{fill:#78568e;}</style></defs><g id="Capa_1-2"><g><circle class="cls-3" cx="40" cy="40" r="40"/><g><path class="cls-1" d="m23.21,30.52c-3.65,7.56-7.31,15.12-10.96,22.68-.24.49-.23,1.12.2,1.51,5.07,4.69,11.17,8.77,18.35,8.47,4.13-.17,7.78-2.25,11.85-2.71,6.43-.71,12.21,2.18,17.11,6.09.7.56,1.84.44,2.09-.55,1.08-4.33,2.16-8.65,3.24-12.98.46-1.85.93-3.71,1.39-5.56.3-1.19,1.56-4.36,1.39-5.56-.46-3.19-5.44-6.02-8.25-7.03-6.13-2.2-11.25,1.07-17.32,1.51-6.49.48-12.29-2.63-17.38-6.32-1.3-.95-2.55,1.22-1.26,2.16,8.11,5.89,15.81,7.91,25.47,5.28,4.85-1.32,16.95-.94,15.63,6.52s-3.57,14.27-5.33,21.33l2.09-.55c-4.05-3.23-8.56-5.96-13.78-6.74-5.99-.89-10.63,2.03-16.39,2.54-2.67.24-5.14-.19-7.63-1.18s-7.73-3.37-8.32-5.97c-.53-2.36,3.41-8.14,4.48-10.34,1.83-3.78,3.65-7.56,5.48-11.34.7-1.44-1.46-2.71-2.16-1.26Z"/><path class="cls-2" d="m39.99,14.31c-7.44,0-12.1,7.12-12.31,12.31-.06,1.47.22,3.25,3.94,9.6,3.19,5.45,6.22,9.67,8.37,12.48,2.29-2.54,5.5-6.48,8.51-11.83,2.68-4.75,4.01-7.18,3.8-10.24-.36-5.16-4.86-12.31-12.31-12.31Zm0,18.03c-3.78,0-6.84-3.06-6.84-6.84s3.06-6.84,6.84-6.84,6.84,3.06,6.84,6.84-3.06,6.84-6.84,6.84Z"/><path class="cls-1" d="m39.99,14.31c-7.44,0-12.1,7.12-12.31,12.31-.06,1.47.22,3.25,3.94,9.6,3.19,5.45,6.22,9.67,8.37,12.48,2.29-2.54,5.5-6.48,8.51-11.83,2.68-4.75,4.01-7.18,3.8-10.24-.36-5.16-4.86-12.31-12.31-12.31Zm0,18.03c-3.78,0-6.84-3.06-6.84-6.84s3.06-6.84,6.84-6.84,6.84,3.06,6.84,6.84-3.06,6.84-6.84,6.84Z"/></g></g></g></svg>