<?xml version="1.0" encoding="UTF-8"?><svg id="Capa_2" xmlns="http://www.w3.org/2000/svg" width="80" height="80" viewBox="0 0 80 80"><defs><style>.cls-1{fill:#00adc1;}.cls-2{fill:#fff;}.cls-3{fill:#78568e;}</style></defs><g id="Capa_1-2"><g><circle class="cls-3" cx="40" cy="40" r="40"/><g><path class="cls-2" d="m42.22,27.72v-9.35c0-2.86-4.44-2.86-4.44,0v9.35c0,2.86,4.44,2.86,4.44,0h0Z"/><g><path class="cls-2" d="m40,58.95c-16.32,0-29.56-6.96-29.56-15.56s13.23-15.56,29.56-15.56c-8.59,0-15.56,6.96-15.56,15.56s6.96,15.56,15.56,15.56Z"/><path class="cls-2" d="m69.56,43.4c0,8.59-13.23,15.56-29.56,15.56,8.59,0,15.56-6.96,15.56-15.56s-6.96-15.56-15.56-15.56c16.32,0,29.56,6.96,29.56,15.56Z"/><circle class="cls-3" cx="40" cy="43.4" r="16"/><circle class="cls-2" cx="40" cy="43.4" r="7.78"/></g><g><g><path class="cls-1" d="m59.16,32.47c1.88-2.46,3.75-4.92,5.63-7.38"/><path class="cls-2" d="m61.08,33.59c1.88-2.46,3.75-4.92,5.63-7.38.73-.96.14-2.48-.8-3.04-1.13-.68-2.32-.15-3.04.8-1.88,2.46-3.75,4.92-5.63,7.38-.73.96-.14,2.48.8,3.04,1.13.68,2.32.15,3.04-.8h0Z"/></g><g><path class="cls-1" d="m20.84,32.47c-1.88-2.46-3.75-4.92-5.63-7.38"/><path class="cls-2" d="m22.75,31.35c-1.88-2.46-3.75-4.92-5.63-7.38-.73-.96-1.91-1.44-3.04-.8-.95.54-1.52,2.09-.8,3.04,1.88,2.46,3.75,4.92,5.63,7.38.73.96,1.91,1.44,3.04.8.95-.54,1.52-2.09.8-3.04h0Z"/></g></g></g></g></g></svg>