<?xml version="1.0" encoding="UTF-8"?><svg id="Capa_2" xmlns="http://www.w3.org/2000/svg" width="2000" height="1473.45" viewBox="0 0 2000 1473.45"><defs><style>.cls-1{stroke:#969494;stroke-miterlimit:13.33;stroke-width:1.68px;}.cls-1,.cls-2{fill:none;}.cls-3{fill:#d1dbf2;}.cls-3,.cls-4,.cls-5,.cls-6,.cls-7,.cls-8{fill-rule:evenodd;}.cls-4{fill:#e0debf;}.cls-2,.cls-7{stroke:#828282;stroke-linecap:round;stroke-linejoin:round;stroke-width:7.8px;}.cls-5{fill:#f2f5e3;}.cls-9{fill:#aba8a8;}.cls-6{fill:#f5ebbd;}.cls-7,.cls-8{fill:#f2f5fc;}</style></defs><g id="svg2"><g><path id="path1584" class="cls-8" d="m240.98,116.1l142.8-.8L449.55,4.78l139.72.27,2.62,86.29-32.33,59.62-68.76.46-16.04,82.49,44.34,87.75-60.45-.75-66.36-67.29-53.18.46"/><path id="path1586" class="cls-9" d="m240.98,111.32l142.8-.8v9.56l-142.8.8v-9.56Zm146.9,6.45c-.59.99-2.95,2.31-4.11,2.31v-4.78l4.11,2.47Zm-8.22-4.93L445.44,2.31l8.22,4.93-65.77,110.52-8.22-4.93ZM445.44,2.31C446.04,1.31,448.38,0,449.55,0v4.78l-4.11-2.47ZM449.55,0l139.72.27v9.56l-139.72-.27V0Zm139.72.27c2.31,0,4.71,2.32,4.78,4.63l-4.78.15V.27Zm4.78,4.63l2.62,86.29-9.56.3-2.62-86.29,9.56-.3Zm2.62,86.29c0,.32-.41,2.16-.56,2.45l-4.22-2.3,4.78-.15Zm-.56,2.45l-32.33,59.62-8.44-4.59,32.33-59.62,8.44,4.59Zm-32.33,59.62c-.59,1.09-2.98,2.48-4.22,2.48v-4.78l4.22,2.3Zm-4.22,2.48l-68.76.46v-9.56l68.76-.46v9.56Zm-73.48-5.22c.36-1.88,2.8-3.87,4.72-3.88v4.78l-4.72-.9Zm9.45,1.79l-16.04,82.49-9.45-1.79,16.04-82.49,9.45,1.79Zm-25.04,83.74c-.23-.45-.54-2.55-.45-3.04l4.72.9-4.28,2.15Zm8.55-4.3l44.34,87.75-8.55,4.3-44.34-87.75,8.55-4.3Zm44.34,87.75c1.58,3.12-.82,6.97-4.31,6.93l.04-4.78,4.28-2.15h0Zm-4.31,6.93l-60.45-.75.08-9.56,60.45.75-.08,9.56h0Zm-60.45-.75c-.69,0-2.9-.93-3.38-1.42l3.42-3.36-.04,4.78h0Zm-3.38-1.42l-66.36-67.29,6.84-6.72,66.36,67.29-6.84,6.72Zm-62.98-75.43c.72,0,2.95.9,3.46,1.42l-3.42,3.36-.04-4.78h0Zm.08,9.56l-53.18.46-.08-9.56,53.18-.46.08,9.56h0Zm-53.18.46c-1.02,0-3.37-1.18-3.96-2.02l3.92-2.76.04,4.78h0Zm-3.96-2.02l-98.12-137.98,7.84-5.53,98.12,137.98-7.84,5.53Zm-98.12-137.98c-2.18-3.06.15-7.52,3.92-7.54v4.78"/><path id="path1588" class="cls-5" d="m590.2,5.48l224.39,136.78,1.77,122.25-137.74,38.3-.72,109.91,33.78,35.19-45.35,54.44-147.92-181.94-43.76-86.6,15.44-82.38,70.15-.53,31.38-60.27"/><path id="path1590" class="cls-9" d="m592.68,1.41l224.39,136.78-4.97,8.14L587.71,9.55l4.97-8.14Zm224.39,136.78c.95.58,2.28,2.92,2.3,4.03l-4.78.04,2.48-4.07h0Zm2.3,4.03l1.77,122.25-9.56.08-1.77-122.25,9.56-.08h0Zm1.77,122.25c.02,1.78-1.81,4.17-3.53,4.65l-1.25-4.61,4.78-.04h0Zm-3.53,4.65l-137.74,38.3-2.5-9.22,137.74-38.3,2.5,9.22Zm-143.77,33.69c0-1.73,1.86-4.15,3.53-4.61l1.25,4.61h-4.78Zm9.56,0l-.72,109.91h-9.56l.72-109.91h9.56Zm-8.95,113.21c-.47-.49-1.33-2.63-1.33-3.31h4.78l-3.45,3.31Zm6.91-6.61l33.78,35.19-6.91,6.61-33.78-35.19,6.91-6.61Zm33.78,35.19c1.47,1.53,1.56,4.74.21,6.37l-3.66-3.06,3.45-3.31Zm.21,6.37l-45.35,54.44-7.32-6.13,45.35-54.44,7.32,6.13Zm-45.35,54.44c-1.82,2.19-5.58,2.15-7.38-.05l3.72-3.01,3.66,3.06h0Zm-7.38-.06l-147.92-181.94,7.43-6.01,147.92,181.94-7.43,6.01Zm-147.92-181.94s-.54-.81-.56-.86l4.28-2.15-3.72,3.01Zm-.56-.86l-43.76-86.6,8.55-4.3,43.76,86.6-8.55,4.3Zm-43.76-86.6c-.22-.44-.54-2.56-.45-3.04l4.72.9-4.28,2.15Zm-.45-3.04l15.44-82.38,9.45,1.79-15.44,82.38-9.45-1.79Zm15.44-82.38c.36-1.9,2.78-3.87,4.72-3.88v4.78l-4.72-.9Zm4.72-3.88l70.15-.53v9.56l-70.15.53v-9.56Zm74.42,6.45c-.59,1.12-3,2.57-4.28,2.58v-4.78l4.28,2.2Zm-8.55-4.41l31.38-60.27,8.55,4.41-31.38,60.27-8.55-4.41Zm40.43-58.1c0,.29-.37,1.99-.5,2.24l-4.28-2.2,4.78-.04h0Zm-9.56.08l-1.41-85.14,9.56-.08,1.41,85.14-9.56.08Zm-1.41-85.14c-.06-3.66,4.13-6.01,7.26-4.11l-2.48,4.07"/><path id="path1592" class="cls-5" d="m815.79,264.12l18.39,69.67-40.76,2.77-81.62,110.7-33.47-35.37.45-109.15"/><path id="path1594" class="cls-9" d="m820.4,262.92l18.39,69.67-9.22,2.39-18.39-69.67,9.22-2.39Zm18.39,69.67c.72,2.75-1.49,5.78-4.31,5.97l-.3-4.78,4.61-1.19Zm-4.31,5.97l-40.76,2.77-.6-9.56,40.76-2.77.6,9.56Zm-44.92-4.82c.5-.68,2.73-1.92,3.57-1.98l.3,4.78-3.86-2.8Zm7.73,5.6l-81.62,110.7-7.73-5.6,81.62-110.7,7.73,5.6Zm-81.62,110.7c-1.68,2.28-5.43,2.54-7.36.5l3.49-3.31,3.86,2.8Zm-7.36.5l-33.47-35.37,6.98-6.61,33.47,35.37-6.98,6.61Zm-33.47-35.37c-.45-.48-1.29-2.64-1.29-3.31h4.78l-3.49,3.31Zm-1.29-3.31l.45-109.15h9.56l-.45,109.15h-9.56Zm.45-109.15c0-1.74,1.81-4.14,3.47-4.61l1.31,4.61h-4.78Zm3.47-4.61l137.01-38.62,2.62,9.22-137.01,38.62-2.62-9.22Zm137.01-38.62c2.33-.66,5.3,1.06,5.92,3.42l-4.61,1.2"/><path id="path1596" class="cls-5" d="m834.7,333.79l22.41,94.22-94.74,73.13-50.91-53.02,81.97-111.56"/><path id="path1598" class="cls-9" d="m839.37,332.69l22.41,94.22-9.34,2.21-22.41-94.22,9.34-2.21Zm22.41,94.22c.32,1.37-.64,4.05-1.76,4.91l-2.91-3.81,4.67-1.1Zm-1.76,4.91l-94.74,73.13-5.82-7.62,94.74-73.13,5.82,7.62Zm-94.74,73.13c-1.69,1.3-4.89,1.04-6.37-.5l3.45-3.31,2.91,3.81Zm-6.37-.5l-50.91-53.02,6.91-6.61,50.91,53.02-6.91,6.61Zm-50.91-53.02c-1.37-1.43-1.58-4.51-.41-6.11l3.86,2.8-3.45,3.31Zm-.41-6.11l81.97-111.56,7.73,5.6-81.97,111.56-7.73-5.6Zm81.97-111.56c.5-.69,2.72-1.92,3.57-1.98l.3,4.78-3.86-2.8Zm3.57-1.98l41.28-2.77.6,9.56-41.28,2.77-.6-9.56Zm41.28-2.77c1.99-.13,4.51,1.74,4.97,3.68l-4.67,1.1"/><path id="path1600" class="cls-5" d="m856.72,427.62l31.7,64.99-75.73,52.29-50.22-43.71"/><path id="path1602" class="cls-9" d="m861.03,425.51l31.7,64.99-8.63,4.22-31.7-64.99,8.63-4.22Zm31.7,64.99c.89,1.83.07,4.91-1.61,6.07l-2.71-3.96,4.31-2.11Zm-1.61,6.07l-75.73,52.29-5.41-7.92,75.73-52.29,5.41,7.92Zm-75.73,52.29c-1.48,1.03-4.5.85-5.86-.34l3.15-3.62,2.71,3.96Zm-5.86-.34l-50.22-43.71,6.31-7.25,50.22,43.71-6.31,7.25Zm-50.22-43.71c-2.15-1.87-2.05-5.64.21-7.4l2.95,3.77-3.16,3.62Zm.21-7.4l94.26-73.57,5.9,7.54-94.26,73.57-5.9-7.54Zm94.26-73.57c2.28-1.78,6-.93,7.26,1.66l-4.31,2.11"/><path id="path1604" class="cls-6" d="m665.45,502.86l102.93,92.31,44.3-48.9-51.14-45.34-49.71-52.23"/><path id="path1606" class="cls-9" d="m668.66,499.3l102.93,92.31-6.43,7.13-102.93-92.31,6.43-7.13Zm103.29,99.09c-1.6,1.77-5,1.95-6.78.35l3.21-3.57,3.57,3.21Zm-7.13-6.43l44.3-48.9,7.13,6.43-44.3,48.9-7.13-6.43Zm51.06-49.29c1.81,1.61,2.01,5.02.37,6.82l-3.57-3.21,3.19-3.6Zm-6.39,7.21l-51.14-45.34,6.39-7.21,51.14,45.34-6.39,7.21Zm-51.14-45.34s-.26-.29-.26-.3l3.45-3.31-3.19,3.6Zm-.26-.3l-49.71-52.23,6.91-6.61,49.71,52.23-6.91,6.61Zm-49.92-58.65c1.71-2,5.29-2.1,7.11-.19l-3.45,3.31-3.66-3.12Zm7.32,6.24l-46.39,54.15-7.32-6.24,46.39-54.15,7.32,6.24Zm-53.26,54.6c-1.75-1.57-1.97-4.9-.45-6.68l3.66,3.12"/><path id="path1608" class="cls-6" d="m614.44,550.05l118.44,130.06,35.77-26.21-.38-58.55-102.6-93.11"/><path id="path1610" class="cls-9" d="m618,546.83l118.44,130.06-7.13,6.43-118.44-130.06,7.13-6.43Zm117.67,137.14c-1.73,1.27-4.93.92-6.37-.65l3.57-3.21,2.8,3.86Zm-5.6-7.73l35.77-26.21,5.6,7.73-35.77,26.21-5.6-7.73Zm43.36-22.35c0,.99-1.18,3.28-1.98,3.86l-2.8-3.86h4.78Zm-9.56,0l-.38-58.55h9.56l.38,58.55h-9.56Zm7.61-62.12c.57.52,1.56,2.79,1.57,3.57h-4.78l3.21-3.57Zm-6.43,7.13l-102.6-93.11,6.43-7.13,102.6,93.11-6.43,7.13Zm-102.66-100.19c1.61-1.5,4.85-1.53,6.48-.05l-3.21,3.57-3.27-3.51h0Zm6.54,7.02l-51.23,47.81-6.54-7.02,51.23-47.81,6.54,7.02Zm-58.06,47.52c-1.59-1.75-1.43-5.11.3-6.72l3.27,3.51"/><path id="path1612" class="cls-6" d="m538.65,611.64l42.28,66.09,89.18-66.87-54.81-60.53"/><path id="path1614" class="cls-9" d="m542.7,609.07l42.28,66.09-8.11,5.15-42.27-66.09,8.1-5.15Zm41.08,72.47c-2.06,1.55-5.53.92-6.91-1.23l4.05-2.58,2.86,3.81Zm-5.71-7.62l89.17-66.87,5.71,7.62-89.18,66.87-5.71-7.62Zm95.6-66.27c1.75,1.93,1.39,5.45-.71,7.02l-2.86-3.81,3.57-3.21Zm-7.13,6.43l-54.81-60.53,7.13-6.43,54.81,60.53-7.13,6.43Zm-54.24-67.49c1.76-1.41,5.04-1.13,6.55.54l-3.57,3.21-2.99-3.75Zm5.98,7.51l-76.63,61.31-5.98-7.51,76.63-61.31,5.98,7.51Zm-83.67,60.13c-1.16-1.81-.61-4.99,1.06-6.33l2.99,3.75"/><path id="path1616" class="cls-3" d="m426.67,375.63l31.17-55.78,68.65,7.53,94.39,122.87-112.61,2.15"/><path id="path1618" class="cls-9" d="m422.47,373.37l31.17-55.78,8.4,4.52-31.17,55.78-8.4-4.52Zm31.17-55.78c.71-1.26,3.26-2.63,4.7-2.47l-.5,4.73-4.2-2.26Zm4.7-2.47l68.65,7.53-1.01,9.46-68.65-7.53,1.01-9.46Zm68.65,7.53c.73.08,2.87,1.24,3.32,1.82l-3.82,2.91.5-4.73Zm3.32,1.82l94.39,122.87-7.64,5.81-94.39-122.87,7.64-5.81Zm94.39,122.87c2.3,3,.08,7.58-3.74,7.65l-.08-4.75,3.82-2.91h0Zm-3.74,7.65l-112.61,2.15-.15-9.5,112.61-2.15.15,9.5Zm-112.61,2.15c-.68,0-2.88-.84-3.37-1.3l3.3-3.44.08,4.75h0Zm-3.37-1.3l-81.6-76.77,6.6-6.89,81.6,76.77-6.6,6.89Zm-81.6-76.77c-1.31-1.24-1.78-4.13-.9-5.71l4.2,2.26"/><path id="path1620" class="cls-3" d="m332.65,428.65l-3.71-123.84,98.63,71.33,81.73,76.71-57.84,89.43"/><path id="path1622" class="cls-9" d="m327.86,428.78l-3.71-123.84,9.58-.26,3.71,123.84-9.58.26Zm-3.71-123.84c-.12-3.84,4.51-6.22,7.63-3.96l-2.85,3.83-4.79.13Zm7.63-3.96l98.63,71.33-5.69,7.66-98.63-71.33,5.69-7.66Zm98.63,71.33s.44.37.45.39l-3.3,3.44,2.85-3.83Zm.45.39l81.74,76.71-6.6,6.89-81.73-76.71,6.6-6.89Zm81.74,76.71c1.43,1.34,1.78,4.39.72,6.03l-4.02-2.59,3.3-3.45Zm.72,6.03l-57.84,89.43-8.04-5.18,57.84-89.43,8.04,5.18Zm-57.84,89.43c-1.54,2.38-5.27,2.82-7.32.86l3.3-3.45,4.02,2.59Zm-7.32.86l-118.81-113.64,6.6-6.89,118.81,113.64-6.6,6.89Zm-118.81-113.64c-.5-.47-1.47-2.63-1.49-3.31l4.79-.13"/><path id="path1624" class="cls-3" d="m451.05,542.62l56.93-91.15,114.33-1.48,45.24,62.66-53.41,45.4-78.16,58.85-66.59,51.82,11.88-85.33"/><path id="path1626" class="cls-9" d="m446.95,540.1l56.93-91.15,8.19,5.03-56.93,91.15-8.19-5.03Zm56.93-91.15c.58-.92,2.98-2.22,4.08-2.23l.02,4.75-4.1-2.52h0Zm4.08-2.23l114.33-1.48.04,9.49-114.33,1.48-.04-9.49Zm114.33-1.48c1.01,0,3.34,1.18,3.93,1.99l-3.91,2.76-.02-4.75h0Zm3.93,1.99l45.24,62.66-7.82,5.51-45.24-62.66,7.82-5.51Zm45.24,62.66c1.28,1.78.87,4.94-.8,6.37l-3.1-3.61,3.91-2.76Zm-.8,6.37l-53.41,45.4-6.21-7.23,53.41-45.4,6.21,7.23Zm-53.41,45.4l-.23.18-2.87-3.79,3.1,3.61Zm-.23.18l-78.16,58.85-5.75-7.58,78.16-58.85,5.75,7.58Zm-84.03,51.33l.11-.05,2.87,3.79-2.99-3.74h0Zm5.98,7.47l-66.59,51.82-5.98-7.47,66.59-51.82,5.98,7.47Zm-66.59,51.82c-3.25,2.53-8.31-.32-7.75-4.38l4.76.65,2.99,3.74Zm-7.75-4.38l11.88-85.33,9.52,1.29-11.88,85.33-9.52-1.3Zm20.48-87.51c.41.55,1.01,2.8.92,3.48l-4.76-.65,3.84-2.83Zm-7.68,5.67l-30.22-40.77,7.68-5.67,30.22,40.77-7.68,5.67Zm-30.22-40.77c-.91-1.22-1.06-4.07-.26-5.35l4.1,2.52"/><path id="path1628" class="cls-3" d="m273.02,787.04l-17.47-206.05-13.33-57.49,93.02-93.11,114.48,110.82,32.97,40.87-12.96,85.59"/><path id="path1630" class="cls-9" d="m268.22,787.41l-17.47-206.05,9.59-.74,17.47,206.05-9.59.74Zm-8.01-207.48s.13.67.13.69l-4.8.37,4.67-1.06Zm-9.34,2.12l-13.33-57.49,9.34-2.12,13.33,57.49-9.34,2.12Zm-13.33-57.49c-.25-1.09.46-3.59,1.26-4.39l3.41,3.33-4.67,1.06Zm1.26-4.39l93.02-93.11,6.83,6.65-93.02,93.11-6.83-6.65Zm93.02-93.11c1.65-1.66,5.08-1.69,6.77-.06l-3.35,3.39-3.41-3.33h0Zm6.77-.06l114.48,110.82-6.7,6.77-114.48-110.82,6.7-6.77Zm114.48,110.82s.4.41.42.42l-3.77,2.96,3.35-3.39Zm.42.42l32.97,40.87-7.53,5.93-32.97-40.87,7.54-5.93Zm32.97,40.87c.49.6,1.11,2.9.99,3.67l-4.76-.7,3.77-2.96Zm.99,3.67l-12.96,85.59-9.52-1.41,12.96-85.59,9.52,1.4Zm-12.96,85.59c-.13.85-1.52,2.92-2.25,3.37l-2.51-4.07,4.76.7Zm-2.25,3.37l-196.72,119.37-5.02-8.14,196.72-119.37,5.02,8.14Zm-196.72,119.37c-2.97,1.8-7.01-.26-7.3-3.7l4.8-.37"/><path id="path1632" class="cls-4" d="m473.4,666.46l76.47,96.43,30.27-85.54-41.57-65.4"/><path id="path1634" class="cls-9" d="m477.17,663.51l76.47,96.43-7.54,5.9-76.47-96.43,7.54-5.9Zm77.21,100.99c-1.22,3.45-6.01,4.22-8.29,1.34l3.77-2.95,4.52,1.61Zm-9.04-3.21l30.27-85.55,9.04,3.21-30.27,85.54-9.04-3.21Zm38.86-86.5c.49.78.76,3.3.45,4.17l-4.52-1.61,4.07-2.56Zm-8.14,5.12l-41.57-65.4,8.14-5.12,41.57,65.4-8.14,5.12Zm-40.56-71.62c2.08-1.74,5.69-1.17,7.13,1.1l-4.07,2.56-3.06-3.66Zm6.12,7.32l-65.16,54.51-6.13-7.32,65.17-54.51,6.12,7.32Zm-72,53.8c-1.44-1.82-1.08-5.12.71-6.61l3.06,3.66"/><path id="path1636" class="cls-4" d="m598.03,804.28l-47.74-41.99,30.63-84.8,88.92-66.61,63.23,68.99"/><path id="path1638" class="cls-9" d="m594.87,807.91l-47.74-41.99,6.31-7.25,47.74,41.99-6.31,7.25Zm-47.74-41.99c-1.14-1-1.88-3.8-1.36-5.23l4.52,1.61-3.16,3.62Zm-1.36-5.23l30.63-84.8,9.04,3.21-30.63,84.8-9.04-3.21Zm30.63-84.8c.13-.36,1.35-1.97,1.66-2.2l2.86,3.81-4.52-1.61Zm1.66-2.2l88.92-66.61,5.71,7.62-88.92,66.61-5.71-7.62Zm88.92-66.61c1.73-1.3,4.96-1.02,6.41.56l-3.55,3.25-2.86-3.81Zm6.41.56l63.23,68.99-7.1,6.5-63.23-68.99,7.1-6.5Zm63.23,68.99c1.62,1.76,1.48,5.14-.28,6.76l-3.27-3.51,3.55-3.25Zm-.28,6.76l-135.04,124.41-6.54-7.02,135.04-124.41,6.54,7.02Zm-135.04,124.41c-1.58,1.46-4.81,1.53-6.42.11l3.16-3.62"/><path id="path1640" class="cls-4" d="m403.2,912.91l-121.95-120.07,192.74-125.25,77.19,96.5,46.93,39.97-78.53,109.93"/><path id="path1642" class="cls-9" d="m399.84,916.33l-121.95-120.07,6.72-6.84,121.95,120.07-6.72,6.84Zm-121.95-120.07c-2.07-2.04-1.69-5.85.75-7.43l2.61,4.01-3.36,3.42Zm.75-7.43l192.74-125.25,5.23,8.03-192.74,125.25-5.23-8.03Zm192.74-125.25c1.81-1.18,5.02-.66,6.37,1.03l-3.75,2.99-2.61-4.01Zm6.37,1.03l77.19,96.5-7.51,5.97-77.19-96.5,7.51-5.97Zm70.32,103.14s-.61-.64-.64-.67l3.75-2.99-3.12,3.66Zm6.24-7.32l46.93,39.97-6.24,7.32-46.93-39.97,6.24-7.32Zm46.93,39.97c1.67,1.42,2.08,4.64.8,6.42l-3.92-2.76,3.12-3.66Zm.8,6.42l-78.53,109.93-7.84-5.53,78.53-109.93,7.84,5.53Zm-78.53,109.93c-.59.83-2.94,2.02-3.96,2.02l.04-4.78,3.92,2.76h0Zm-3.96,2.02l-116.38-1.07.08-9.56,116.38,1.07-.08,9.56Zm-116.38-1.07c-.67,0-2.85-.89-3.32-1.36l3.36-3.42"/><path id="path1644" class="cls-2" d="m888.37,492.47l138.97,82.78,15.15,99.34-139.54,117.84-134.3-137.15-.43-60.49,47.22-51.27,72.93-51.05Z"/><path id="path1646" class="cls-3" d="m1140.18,772.55l-97.69-96.58-71.08,57.41,92.25,112.2s76.52-70.28,76.52-73.04"/><path id="path1648" class="cls-9" d="m1136.82,775.97l-97.69-96.58,6.72-6.84,97.69,96.58-6.72,6.84Zm-97.34-103.71c1.65-1.34,4.86-1.19,6.37.3l-3.36,3.42-3.01-3.72Zm6.01,7.43l-71.08,57.41-6.01-7.43,71.08-57.41,6.01,7.43Zm-77.81,56.76c-1.53-1.86-1.18-5.25.71-6.78l3.01,3.72-3.72,3.06Zm7.43-6.13l92.25,112.2-7.43,6.12-92.25-112.2,7.43-6.13Zm91.8,118.78c-1.87,1.72-5.38,1.5-6.98-.45l3.72-3.06,3.27,3.51Zm-6.54-7.02c.21-.19,75.01-68.94,75.01-69.53h9.56c0,4.93-77.81,76.35-78.03,76.55l-6.54-7.02Zm83.15-72.94c.5.5,1.42,2.71,1.42,3.42h-4.78"/><path id="path1650" class="cls-3" d="m1008.08,909.14l55.04-63.47-91.47-112.05-68.86,58.58s102.53,114.18,105.29,116.94"/><path id="path1652" class="cls-9" d="m1004.46,906.02l55.04-63.47,7.25,6.24-55.04,63.47-7.25-6.24Zm62.38-63.36c1.25,1.53,1.2,4.63-.09,6.12l-3.62-3.12,3.72-3.01Zm-7.43,6.01l-91.47-112.05,7.43-6.01,91.47,112.05-7.43,6.01Zm-90.87-118.71c1.86-1.58,5.29-1.25,6.83.65l-3.72,3.01-3.12-3.66Zm6.24,7.32l-68.86,58.58-6.24-7.32,68.86-58.58,6.24,7.32Zm-75.54,58.13c-1.65-1.83-1.43-5.28.45-6.87l3.12,3.66-3.57,3.21Zm7.13-6.43c.29.33,102.59,114.24,105.14,116.79l-6.84,6.72c-2.96-2.97-105.14-116.76-105.43-117.09l7.13-6.43Zm105.34,123.27c-1.68,1.94-5.23,2.06-7.04.24l3.42-3.36"/><path id="path1654" class="cls-3" d="m904.52,989.11l105.01-42.85-.48-36.98-105.91-117.09-56.2,66.46"/><path id="path1656" class="cls-9" d="m902.73,984.68l105.01-42.85,3.58,8.85-105.01,42.85-3.58-8.85Zm111.59-38.46c.02,1.51-1.58,3.89-2.99,4.46l-1.79-4.43,4.78-.04h0Zm-9.56.08l-.48-36.98,9.56-.08.48,36.98-9.56.08Zm7.86-40.23c.4.44,1.21,2.58,1.21,3.17l-4.78.04,3.57-3.21h0Zm-7.13,6.42l-105.91-117.09,7.13-6.43,105.91,117.09-7.13,6.43Zm-106-123.42c1.75-2.08,5.4-2.11,7.23-.1l-3.57,3.21-3.66-3.12Zm7.32,6.24l-56.2,66.46-7.32-6.24,56.2-66.46,7.32,6.24Zm-64.23,65.28c-.54-1.23-.15-4.03.71-5.06l3.66,3.12-4.37,1.94Zm8.74-3.88l57.58,130.45-8.74,3.88-57.58-130.45,8.74-3.88Zm55,136.82c-2.15.88-5.23-.36-6.16-2.48l4.37-1.94"/><path id="path1658" class="cls-7" d="m767.89,654.3l135.79,138.09-56.78,66.19-67.87.86-151.88,278.9-95.22,33.96-99.44-143.44,46.92-42.93-75.48-72.76,115.49.82,77.83-109.66,135.32-124.1,35.33-25.91Z"/><path id="path1660" class="cls-6" d="m1063.08,845.1l77.42-73.36,109.93,69.37-124.62,105.03-29.81-26.9-54.05,46.49-33.05-18.59-.76-38.7"/><path id="path1662" class="cls-9" d="m1059.77,841.65l77.42-73.36,6.61,6.91-77.42,73.36-6.61-6.91Zm77.42-73.36c1.31-1.24,4.34-1.58,5.86-.62l-2.56,4.07-3.31-3.45Zm5.86-.62l109.93,69.37-5.12,8.14-109.93-69.37,5.12-8.14Zm109.93,69.37c2.63,1.66,2.9,5.71.5,7.73l-3.06-3.66,2.56-4.07Zm.5,7.73l-124.62,105.03-6.13-7.32,124.62-105.03,6.13,7.32Zm-124.62,105.03c-1.58,1.33-4.75,1.29-6.28-.09l3.21-3.57,3.06,3.66Zm-6.28-.09l-29.81-26.9,6.43-7.13,29.81,26.9-6.43,7.13Zm-29.72-34.12c1.59-1.37,4.77-1.31,6.33.09l-3.21,3.57-3.12-3.66Zm6.24,7.32l-54.05,46.49-6.24-7.32,54.05-46.49,6.24,7.32Zm-54.05,46.49c-1.19,1.03-4.09,1.28-5.47.51l2.35-4.16,3.12,3.66Zm-5.47.51l-33.05-18.59,4.71-8.33,33.05,18.59-4.71,8.33Zm-33.05-18.59c-1.03-.58-2.4-2.9-2.43-4.07l4.78-.09-2.35,4.17Zm-2.43-4.07l-.76-38.7,9.56-.19.76,38.7-9.56.19Zm-.76-38.7c-.02-.61.75-2.75,1.16-3.21l3.62,3.12-4.78.09Zm1.16-3.21l54.95-63.33,7.25,6.24-54.95,63.33-7.25-6.24Zm54.95-63.33s.31-.33.32-.34l3.31,3.45"/><path id="path1664" class="cls-6" d="m1250.64,841.5l65.13,42.53,198.54,50.71-275.03,278.03-41.85-43.88,87.82-87.1,1.31-97.23-101.77-.06-19.11-71.8"/><path id="path1666" class="cls-9" d="m1253.25,837.48l65.13,42.53-5.23,8.03-65.13-42.53,5.23-8.03Zm61.32,51.18c-.12-.03-1.32-.55-1.42-.62l2.61-4.01-1.19,4.63Zm2.39-9.26l198.54,50.71-2.39,9.26-198.54-50.71,2.39-9.26Zm198.54,50.71c3.5.89,4.75,5.43,2.22,7.99l-3.42-3.36,1.2-4.63Zm2.22,7.99l-275.03,278.02-6.84-6.72,275.03-278.02,6.84,6.72Zm-275.03,278.02c-1.73,1.75-5.17,1.73-6.87-.05l3.45-3.31,3.42,3.36h0Zm-6.87-.06l-41.85-43.88,6.91-6.61,41.85,43.88-6.91,6.61Zm-41.85-43.88c-1.62-1.7-1.57-5.08.09-6.72l3.36,3.42-3.45,3.31Zm.09-6.72l87.82-87.1,6.72,6.84-87.82,87.1-6.72-6.84Zm95.96-83.64c0,.68-.93,2.9-1.42,3.38l-3.36-3.42,4.78.04h0Zm-9.56-.08l1.31-97.23,9.56.08-1.31,97.23-9.56-.08h0Zm6.09-101.98c2.42,0,4.81,2.4,4.78,4.82l-4.78-.04v-4.78h0Zm0,9.56l-101.77-.06v-9.56l101.77.06v9.56Zm-101.77-.06c-1.77,0-4.16-1.87-4.61-3.58l4.61-1.2v4.78Zm-4.61-3.58l-19.11-71.8,9.22-2.39,19.11,71.8-9.22,2.39Zm-19.11-71.8c-.35-1.33.5-3.98,1.55-4.85l3.06,3.66-4.61,1.2Zm1.55-4.85l84.95-71.19,6.12,7.32-84.95,71.19-6.12-7.32Zm84.95-71.19c1.3-1.09,4.26-1.28,5.68-.36l-2.61,4.01"/><path id="path1668" class="cls-6" d="m1165.55,913.47l-90.61,76.18,47.84,46.07-47.84,40.75.34,46.69,53.65,75.15-.17,125.26,110.18-110.35-40.84-44.71,87.66-86.73,1.09-97.26-101.57-.44"/><path id="path1670" class="cls-9" d="m1168.61,917.13l-90.61,76.18-6.13-7.32,90.61-76.18,6.12,7.32Zm-96.98,75.98c-1.9-1.83-1.78-5.41.24-7.11l3.06,3.66-3.31,3.45Zm6.61-6.91l47.84,46.07-6.61,6.91-47.84-46.07,6.61-6.91Zm47.84,46.07c1.9,1.83,1.81,5.41-.19,7.11l-3.12-3.66,3.31-3.45Zm-.19,7.11l-47.84,40.75-6.24-7.32,47.84-40.75,6.24,7.32Zm-55.73,37.09c0-.86,1.01-3.11,1.66-3.66l3.12,3.66h-4.78Zm9.56,0l.34,46.69h-9.56l-.34-46.69h9.56Zm-8.36,49.45c-.25-.35-.86-2.33-.86-2.76h4.78l-3.92,2.76Zm7.84-5.53l53.65,75.15-7.84,5.53-53.65-75.15,7.84-5.53Zm53.65,75.15c.26.36.86,2.32.86,2.76h-4.78l3.92-2.76Zm.86,2.76l-.17,125.26h-9.56l.17-125.26h9.56Zm-1.53,128.62c-2.88,2.89-8.2.73-8.2-3.36h4.78l3.42,3.36Zm-6.84-6.72l110.18-110.35,6.84,6.72-110.18,110.35-6.84-6.72Zm117.17-110.21c1.54,1.69,1.47,4.95-.15,6.57l-3.42-3.36,3.57-3.21Zm-7.13,6.43l-40.84-44.71,7.13-6.43,40.84,44.71-7.13,6.43Zm-40.84-44.71c-1.55-1.7-1.43-5.01.21-6.63l3.36,3.42-3.57,3.21Zm.21-6.63l87.66-86.73,6.72,6.84-87.66,86.73-6.72-6.84Zm95.8-83.27c0,.69-.93,2.9-1.42,3.38l-3.36-3.42,4.78.04h0Zm-9.56-.08l1.09-97.26,9.56.08-1.09,97.26-9.56-.08h0Zm5.87-102c2.4,0,4.81,2.42,4.78,4.82l-4.78-.04v-4.78h0Zm0,9.56l-101.57-.44v-9.56l101.57.44v9.56Zm-101.57-.44c-1.73,0-4.15-1.86-4.61-3.53l4.61-1.25v4.78Zm-4.61-3.53l-19.74-70.61,9.22-2.5,19.74,70.61-9.22,2.5Zm-18.19-75.52c2.58-2.17,6.77-.84,7.67,2.41l-4.61,1.25"/><path id="path1672" class="cls-8" d="m7.39,11.8l50.98,68.93,41.22.83,84.71,88.17,2.86,68.21-59.99-.09-52.81-60.8L7.39,224.7"/><path id="path1674" class="cls-9" d="m11.24,8.96l50.98,68.93-7.69,5.67L3.55,14.64l7.69-5.67Zm47.06,76.54c-.93-.02-3.22-1.2-3.77-1.94l3.85-2.84-.08,4.78h0Zm.15-9.56l41.22.83-.15,9.56-41.22-.83.15-9.56Zm41.22.83c.7.02,2.9.97,3.38,1.47l-3.45,3.31.08-4.78h0Zm3.38,1.47l84.71,88.17-6.91,6.61-84.71-88.17,6.91-6.61Zm84.71,88.17c.41.43,1.3,2.54,1.33,3.14l-4.78.17,3.45-3.31Zm1.33,3.14l2.86,68.21-9.56.34-2.86-68.21,9.56-.34Zm2.86,68.21c.1,2.49-2.29,4.95-4.78,4.95v-4.78l4.78-.17Zm-4.78,4.95l-59.99-.09v-9.56l59.99.09v9.56Zm-59.99-.09c-.81,0-3.07-1.04-3.6-1.66l3.6-3.12v4.78Zm-3.6-1.66l-52.81-60.8,7.21-6.24,52.81,60.8-7.21,6.24Zm-51.97-67.82c1.75-1.25,4.95-.84,6.37.78l-3.6,3.12-2.76-3.9Zm5.53,7.8L10.16,228.61l-5.53-7.8,66.97-47.65,5.53,7.8ZM10.16,228.61c-3.07,2.19-7.54-.13-7.54-3.9h4.78l2.76,3.9Zm-7.54-3.9V11.8h9.56v212.9H2.61ZM2.61,11.8c0-4.31,6.06-6.3,8.63-2.84l-3.85,2.84"/><path id="path1676" class="cls-8" d="m240.82,116.31l97.91,137.26,53.6-.54,66.44,68.15-38.12,52.9-89.82-69.33-.71,125.39-89.09,99.36-46.6-79.13-84.7-.58L7.39,336.47v-112.23l66.99-46.98,53.55,61.23,59.57-.19-4.14-70,26.6-51.56"/><path id="path1678" class="cls-9" d="m244.72,113.55l97.91,137.26-7.8,5.53-97.91-137.26,7.8-5.53Zm94.02,144.81c-1.02,0-3.33-1.18-3.92-2.02l3.9-2.76.02,4.78h0Zm-.04-9.56l53.6-.54.03,9.56-53.6.54-.04-9.56h0Zm53.6-.54c.74,0,2.94.93,3.45,1.46l-3.44,3.32-.02-4.78h0Zm3.45,1.46l66.44,68.15-6.87,6.65-66.44-68.15,6.87-6.65Zm66.44,68.15c1.38,1.41,1.6,4.5.45,6.11l-3.89-2.78,3.44-3.32Zm.45,6.11l-38.12,52.9-7.77-5.56,38.12-52.9,7.77,5.56Zm-38.12,52.9c-1.44,2-4.85,2.51-6.8,1.01l2.91-3.79,3.88,2.78Zm-6.8,1.01l-89.82-69.33,5.82-7.58,89.82,69.33-5.82,7.58Zm-91.69-73.12c.02-3.84,4.65-6.13,7.69-3.79l-2.91,3.79h-4.78Zm9.56,0l-.7,125.39h-9.56l.7-125.39h9.56Zm-.7,125.39c0,.6-.81,2.75-1.21,3.19l-3.57-3.19h4.78Zm-1.21,3.19l-89.09,99.36-7.13-6.39,89.1-99.36,7.13,6.39Zm-89.09,99.36c-2.08,2.32-6.11,1.9-7.69-.78l4.13-2.41,3.57,3.19Zm-7.69-.78l-46.6-79.13,8.25-4.82,46.6,79.13-8.25,4.82Zm-42.48-86.32c1.16,0,3.54,1.37,4.13,2.37l-4.13,2.41v-4.78Zm0,9.56l-84.7-.58v-9.56l84.7.58v9.56Zm-84.7-.58c-.77,0-3.03-.99-3.55-1.57l3.55-3.21v4.78Zm-3.55-1.57L3.84,339.68l7.1-6.42,102.33,113.32-7.1,6.42ZM3.84,339.68c-.41-.46-1.23-2.59-1.23-3.21h4.78l-3.55,3.21Zm-1.23-3.21v-112.23h9.56v112.23H2.61Zm0-112.23c0-1.01,1.22-3.32,2.05-3.9l2.73,3.9H2.61Zm2.05-3.9l66.99-46.98,5.45,7.8L10.12,228.14l-5.45-7.8Zm66.99-46.98c1.74-1.22,4.91-.83,6.31.76l-3.58,3.14-2.73-3.9Zm6.31.76l53.55,61.23-7.17,6.28-53.55-61.23,7.17-6.28Zm49.96,69.15c-.82,0-3.04-1.02-3.58-1.64l3.58-3.14v4.78Zm0-9.56l59.57-.19v9.56l-59.57.19v-9.56Zm64.35,4.3c.15,2.52-2.26,5.05-4.78,5.06v-4.78l4.78-.28Zm-9.56.56l-4.14-70,9.56-.56,4.14,70-9.56.56Zm-4.14-70c-.02-.33.37-2.15.52-2.45l4.26,2.17-4.78.28Zm.52-2.45l26.6-51.56,8.52,4.33-26.6,51.56-8.52-4.33Zm26.6-51.56c.58-1.12,2.96-2.6,4.22-2.61l.04,4.78-4.26-2.17h0Zm4.22-2.61l30.85-.42.08,9.56-30.85.42-.08-9.56Zm30.85-.42c1.03-.02,3.34,1.18,3.94,2.02l-3.9,2.76"/><path id="path1680" class="cls-8" d="m445.24,13.27l-61.5,102.55-173.92.88-25.89,52.43-84.34-87.05-41.58-.87L7.87,13.27"/><path id="path1682" class="cls-9" d="m449.35,15.71l-61.5,102.55-8.22-4.89,61.5-102.55,8.22,4.89Zm-61.5,102.55c-.59.98-2.96,2.33-4.11,2.33v-4.78l4.11,2.45Zm-4.11,2.33l-173.92.88v-9.56l173.92-.88v9.56Zm-178.21-6.01c.58-1.18,2.98-2.66,4.3-2.67v4.78l-4.3-2.11Zm8.59,4.22l-25.89,52.43-8.59-4.22,25.89-52.43,8.59,4.22Zm-25.89,52.43c-1.41,2.86-5.51,3.51-7.73,1.21l3.44-3.32,4.3,2.11Zm-7.73,1.21l-84.34-87.05,6.87-6.65,84.34,87.05-6.87,6.65Zm-80.83-95.15c.69.02,2.88.96,3.36,1.46l-3.44,3.32.08-4.78h0Zm-.15,9.56l-41.58-.87.15-9.56,41.58.87-.15,9.56Zm-41.58-.87c-.93-.02-3.22-1.2-3.77-1.94l3.85-2.84-.08,4.78h0Zm-3.77-1.94L4.02,16.1l7.69-5.67,50.14,67.93-7.69,5.67ZM4.02,16.1c-2.26-3.06.04-7.62,3.85-7.62v4.78l-3.85,2.84Zm3.85-7.62h437.37v9.56H7.87v-9.56Zm437.37,0c3.62,0,5.97,4.13,4.11,7.23l-4.11-2.45"/><path id="path1684" class="cls-4" d="m904.81,988.88l104.14-41.9,32.9,19.15,54.54-47.18,29.26,27.9-50.61,42.82,48.35,46.46-48.52,40.72.39,46.99-105.44,64.76-32.2-28.88v-72.16l-34.41-18.87"/><path id="path1686" class="cls-9" d="m903.06,984.46l104.14-41.89,3.51,8.85-104.14,41.9-3.51-8.85Zm104.14-41.89c.85-.34,3.35-.16,4.15.3l-2.39,4.13-1.75-4.43Zm4.15.3l32.9,19.15-4.78,8.25-32.9-19.15,4.78-8.25Zm33.63,26.88c-1.22,1.05-4.12,1.33-5.51.52l2.39-4.13,3.12,3.6Zm-6.24-7.21l54.54-47.18,6.24,7.21-54.54,47.18-6.24-7.21Zm54.54-47.18c1.63-1.41,4.85-1.35,6.4.13l-3.29,3.47-3.12-3.6Zm6.4.13l29.26,27.9-6.57,6.95-29.26-27.9,6.57-6.95Zm29.26,27.9c1.91,1.82,1.81,5.41-.21,7.11l-3.08-3.64,3.29-3.47Zm-.21,7.11l-50.61,42.82-6.16-7.28,50.61-42.82,6.16,7.28Zm-57,42.63c-1.9-1.82-1.79-5.39.23-7.1l3.08,3.64-3.31,3.45Zm6.61-6.91l48.35,46.46-6.61,6.91-48.35-46.46,6.61-6.91Zm48.35,46.46c1.9,1.83,1.78,5.41-.24,7.11l-3.06-3.66,3.31-3.45Zm-.24,7.11l-48.52,40.72-6.13-7.32,48.52-40.72,6.13,7.32Zm-56.36,37.08c0-.86,1.05-3.12,1.72-3.68l3.06,3.66-4.78.02h0Zm9.56-.04l.39,46.99-9.56.03-.39-46.99,9.56-.04h0Zm.39,47c0,1.15-1.31,3.48-2.3,4.09l-2.48-4.07,4.78-.02h0Zm-2.3,4.09l-105.44,64.76-4.97-8.14,105.44-64.76,4.97,8.14Zm-105.44,64.76c-1.46.89-4.41.63-5.68-.5l3.19-3.57,2.48,4.07Zm-5.68-.5l-32.2-28.88,6.39-7.13,32.2,28.88-6.39,7.13Zm-32.2-28.88c-.59-.53-1.59-2.77-1.59-3.57h4.78l-3.19,3.57Zm-1.59-3.57v-72.16h9.56v72.16h-9.56Zm7.07-76.35c1.09.59,2.48,2.95,2.48,4.18h-4.78l2.3-4.18Zm-4.59,8.37l-34.41-18.87,4.59-8.37,34.41,18.87-4.59,8.37Zm-34.41-18.87c-1.12-.61-2.51-2.98-2.48-4.26l4.78.08-2.3,4.18h0Zm-2.48-4.26l1.6-79.81,9.56.15-1.6,79.81-9.56-.15Zm1.6-79.81c.03-1.45,1.68-3.81,3.03-4.35l1.75,4.43"/><path id="path1688" class="cls-4" d="m776.65,858.84l70.2-.43,58.48,130.76-2.1,78.2,34.48,21.48-.42,68.53-86.61,50.01-59.72-83.65,25.24-33.65"/><path id="path1690" class="cls-9" d="m776.65,854.06l70.2-.43v9.56l-70.2.43v-9.56Zm70.2-.43c1.42,0,3.77,1.54,4.35,2.84l-4.35,1.94v-4.78Zm4.35,2.84l58.48,130.76-8.7,3.89-58.48-130.76,8.7-3.88Zm58.48,130.76c.1.21.43,1.8.43,2.04l-4.78-.09,4.35-1.94Zm.43,2.04l-2.1,78.2-9.56-.19,2.1-78.2,9.56.19Zm-9.4,82.16c-1-.62-2.29-2.97-2.26-4.15l4.78.09-2.52,4.05Zm5.04-8.11l34.48,21.48-5.04,8.11-34.48-21.48,5.04-8.11Zm34.48,21.48c.97.6,2.26,2.92,2.26,4.05h-4.78l2.52-4.05Zm2.26,4.05l-.42,68.53h-9.56l.42-68.53h9.56Zm-.42,68.53c0,1.18-1.37,3.54-2.39,4.13l-2.39-4.13h4.78Zm-2.39,4.13l-86.61,50.01-4.78-8.25,86.61-50.01,4.78,8.25Zm-86.61,50.01c-1.87,1.08-5.04.39-6.29-1.36l3.9-2.76,2.39,4.13Zm-6.29-1.36l-59.72-83.65,7.8-5.53,59.72,83.65-7.8,5.53Zm-59.72-83.65c-.97-1.35-.92-4.29.08-5.62l3.83,2.86-3.9,2.76h0Zm.08-5.62l25.24-33.66,7.65,5.71-25.24,33.65-7.65-5.71Zm33.79-31.6c.12.73-.45,3.06-.9,3.66l-3.83-2.86,4.72-.8Zm-9.45,1.6l-39.54-231.25,9.45-1.6,39.54,231.25-9.45,1.6Zm-39.54-231.25c-.47-2.74,1.94-5.57,4.72-5.58v4.78"/><path id="path1692" class="cls-4" d="m722.92,1278.66l127.32-71.69-59.28-83.22,25.23-33.65-39.11-229.15-150.11,277.52"/><path id="path1694" class="cls-9" d="m720.59,1274.49l127.32-71.69,4.67,8.33-127.32,71.69-4.67-8.33Zm133.55-70.29c1.53,2.15.73,5.63-1.57,6.93l-2.33-4.16,3.9-2.76Zm-7.8,5.53l-59.28-83.22,7.8-5.53,59.28,83.22-7.8,5.53Zm-59.28-83.22c-.96-1.35-.92-4.29.08-5.62l3.83,2.86-3.9,2.76h0Zm.08-5.62l25.23-33.66,7.65,5.71-25.23,33.65-7.65-5.71Zm33.78-31.6c.12.73-.45,3.06-.9,3.66l-3.83-2.86,4.72-.8Zm-9.45,1.6l-39.11-229.15,9.45-1.6,39.11,229.15-9.45,1.6Zm-38.59-232.22c2.04-3.76,8.21-2.74,8.93,1.46l-4.72.8-4.2-2.26Zm8.4,4.52l-150.11,277.52-8.4-4.52,150.11-277.52,8.4,4.52Zm-158.25,277.95c-.73-1.06-.88-3.81-.26-4.95l4.2,2.26-3.94,2.69Zm7.88-5.38l95.96,140.21-7.88,5.38-95.96-140.21,7.88-5.38Zm94.35,147.06c-1.9,1.07-5.04.32-6.27-1.47l3.94-2.69"/><path id="path1696" class="cls-4" d="m850.62,1360.83l278.33-162.75-53.77-74.33-104.68,65.13-33.65-30.66-86.63,48.78"/><path id="path1698" class="cls-9" d="m848.21,1356.7l278.33-162.75,4.82,8.25-278.33,162.75-4.82-8.25Zm284.63-161.43c1.53,2.12.79,5.6-1.48,6.93l-2.41-4.13,3.88-2.8Zm-7.77,5.6l-53.77-74.33,7.77-5.6,53.77,74.33-7.77,5.6Zm-52.4-81.18c1.89-1.18,5.11-.55,6.41,1.25l-3.88,2.8-2.52-4.05Zm5.04,8.1l-104.68,65.13-5.04-8.1,104.68-65.13,5.04,8.1Zm-104.68,65.13c-1.47.92-4.45.65-5.73-.52l3.21-3.53,2.52,4.05Zm-5.73-.52l-33.65-30.66,6.42-7.06,33.65,30.66-6.42,7.06Zm-32.77-38.36c1.42-.8,4.33-.47,5.54.63l-3.21,3.53-2.33-4.16Zm4.67,8.33l-86.63,48.78-4.67-8.33,86.63-48.78,4.67,8.33Zm-93.74,44.62c0-1.22,1.38-3.56,2.45-4.16l2.33,4.16h-4.78Zm9.56,0l.38,153.83h-9.56l-.38-153.83h9.56Zm-1.99,157.96c-3.1,1.81-7.18-.54-7.19-4.13h4.78"/><path id="path1700" class="cls-4" d="m1189.24,1396.79l-72.04,71.89h-450.35l-.38-63.07,56.14-126.6,128.12-72.03.05,153.23,277.86-161.73.43,125.57"/><path id="path1702" class="cls-9" d="m1192.61,1400.17l-72.04,71.89-6.72-6.76,72.04-71.89,6.72,6.76Zm-72.04,71.89c-.49.49-2.67,1.4-3.36,1.4v-4.78l3.36,3.38Zm-3.36,1.4h-450.35v-9.56h450.35v9.56Zm-450.35,0c-2.38,0-4.77-2.41-4.78-4.78h4.78v4.78Zm-4.78-4.78l-.38-63.07h9.56l.38,63.07h-9.56Zm-.38-63.07c0-.21.33-1.73.41-1.92l4.37,1.92h-4.78Zm.41-1.92l56.14-126.6,8.74,3.84-56.14,126.6-8.74-3.84Zm56.14-126.6c.19-.43,1.62-2.01,2.04-2.24l2.33,4.16-4.37-1.92Zm2.04-2.24l128.12-72.03,4.67,8.33-128.12,72.03-4.67-8.33Zm128.12-72.03c3.1-1.74,7.11.61,7.11,4.16h-4.78l-2.33-4.16Zm7.11,4.16l.05,153.23h-9.56l-.05-153.23h9.56Zm-2.34,157.35c-3.1,1.81-7.17-.55-7.17-4.13h4.78l2.39,4.13Zm-4.78-8.25l277.86-161.73,4.78,8.25-277.86,161.73-4.78-8.25Zm277.86-161.73c3.1-1.8,7.16.55,7.17,4.13h-4.78l-2.39-4.13Zm7.17,4.13l.43,125.57h-9.56l-.43-125.57h9.56Zm-8.03,128.61c-.34-.42-1.1-2.5-1.1-3.04h4.78l-3.68,3.04Zm7.36-6.09l60.18,72.76-7.36,6.09-60.18-72.76,7.36-6.09Zm60.18,72.76c1.37,1.66,1.21,4.89-.32,6.42l-3.36-3.38"/><path id="path1704" class="cls-8" d="m1514.46,934.73l152.22,120.48,95.67,12.4-100.61,102.65-240.11-141.63"/><path id="path1706" class="cls-9" d="m1517.4,930.98l152.22,120.48-5.9,7.5-152.22-120.48,5.9-7.5Zm148.69,128.97c-.34-.04-2.11-.78-2.37-.99l2.95-3.75-.58,4.74Zm1.16-9.48l95.67,12.4-1.16,9.48-95.67-12.4,1.16-9.48Zm95.67,12.4c3.8.49,5.52,5.35,2.84,8.09l-3.42-3.34.58-4.74Zm2.84,8.09l-100.61,102.65-6.83-6.69,100.61-102.65,6.83,6.69Zm-100.61,102.65c-1.27,1.29-4.28,1.69-5.84.76l2.43-4.11,3.42,3.34Zm-5.84.76l-240.11-141.63,4.86-8.22,240.11,141.63-4.86,8.22Zm-240.11-141.63c-2.56-1.51-3.07-5.34-.99-7.45l3.42,3.34-2.43,4.11Zm-.99-7.45l92.83-93.9,6.83,6.69-92.83,93.9-6.83-6.69Zm92.83-93.9c1.49-1.51,4.7-1.73,6.37-.41l-2.95,3.75"/><path id="path1708" class="cls-8" d="m1762.54,1067.74l34.32,10.54,54.99,24.05,143.37,120.97v38.58l-43.52,41-79.23-9.8-210.98-122.92"/><path id="path1710" class="cls-9" d="m1763.96,1063.16l34.32,10.54-2.84,9.15-34.32-10.54,2.84-9.15Zm34.32,10.54s.47.2.49.21l-1.91,4.37,1.42-4.57Zm.49.21l54.99,24.05-3.81,8.74-54.99-24.05,3.81-8.74Zm54.99,24.05c.09.04,1.1.66,1.18.73l-3.08,3.64,1.91-4.37Zm1.18.73l143.37,120.97-6.16,7.28-143.37-120.97,6.16-7.28Zm143.37,120.97c.65.55,1.7,2.8,1.7,3.64h-4.78l3.08-3.64Zm1.7,3.64v38.58h-9.56v-38.58h9.56Zm0,38.58c0,.75-.97,2.96-1.51,3.47l-3.27-3.47h4.78Zm-1.51,3.47l-43.52,41-6.54-6.95,43.52-41,6.54,6.95Zm-43.52,41c-.63.59-2.97,1.39-3.83,1.29l.56-4.76,3.27,3.47Zm-3.83,1.29l-79.23-9.8,1.12-9.52,79.23,9.8-1.12,9.52Zm-79.23-9.8c-.19-.02-1.66-.54-1.83-.64l2.39-4.13-.56,4.76Zm-1.83-.64l-210.98-122.92,4.78-8.25,210.98,122.92-4.78,8.25Zm-210.98-122.92c-2.58-1.5-3.11-5.35-1.03-7.47l3.42,3.34-2.39,4.13Zm-1.03-7.47l101.05-102.43,6.83,6.69-101.05,102.43-6.83-6.69Zm101.05-102.43c.9-.92,3.61-1.61,4.83-1.23l-1.42,4.57"/><path id="path1712" class="cls-8" d="m1952.13,1302.58l-79.01-9.29-451.4-264.85-292.32,294.8,59.66,74.02,101.16-102,74.04,77.28-65.5,73.4,22.69,22.74h449.79"/><path id="path1714" class="cls-9" d="m1951.61,1307.35l-79.01-9.29,1.05-9.52,79.01,9.29-1.05,9.52Zm-79.01-9.29c-.2-.02-1.71-.53-1.89-.64l2.41-4.13-.52,4.76Zm-1.89-.64l-451.4-264.85,4.82-8.25,451.4,264.85-4.82,8.25Zm-452.37-272.33c1.26-1.27,4.24-1.67,5.79-.76l-2.41,4.13-3.38-3.36Zm6.76,6.72l-292.32,294.81-6.76-6.72,292.32-294.81,6.76,6.72Zm-299.43,294.43c-1.33-1.65-1.14-4.84.36-6.35l3.38,3.36-3.73,2.99Zm7.47-5.98l59.66,74.01-7.47,5.98-59.66-74.01,7.47-5.98Zm59.3,80.36c-1.87,1.88-5.45,1.68-7.11-.37l3.73-2.99,3.38,3.36Zm-6.76-6.72l101.16-102,6.76,6.72-101.16,102-6.76-6.72Zm101.16-102c1.72-1.74,5.14-1.71,6.83.06l-3.45,3.31-3.38-3.36Zm6.83.06l74.04,77.28-6.91,6.61-74.04-77.28,6.91-6.61Zm74.04,77.28c1.52,1.59,1.58,4.84.11,6.48l-3.57-3.17,3.45-3.31Zm.11,6.48l-65.5,73.4-7.13-6.35,65.5-73.4,7.13,6.35Zm-72.44,73.58c-1.59-1.59-1.68-4.86-.19-6.54l3.57,3.17-3.38,3.36Zm6.76-6.72l22.69,22.74-6.76,6.72-22.69-22.74,6.76-6.72Zm19.31,30.88c-.7,0-2.89-.92-3.38-1.42l3.38-3.36v4.78Zm0-9.56h449.79v9.56h-449.79v-9.56Zm453.02,8.29c-.46.42-2.6,1.27-3.23,1.27v-4.78l3.23,3.51Zm-6.46-7.02l180.87-166.09,6.46,7.02-180.87,166.09-6.46-7.02Zm184.63-167.34c3.91.46,5.62,5.6,2.71,8.27l-3.23-3.51"/><path id="path1716" class="cls-8" d="m1116.63,1468.67l173.71-174.06,74.31,78.28-65.64,73.23,22.49,22.56"/><path id="path1718" class="cls-9" d="m1113.25,1465.31l173.71-174.06,6.76,6.72-173.71,174.06-6.76-6.72Zm173.71-174.06c1.73-1.74,5.17-1.7,6.85.08l-3.47,3.29-3.38-3.36Zm6.85.08l74.31,78.28-6.95,6.57-74.31-78.28,6.95-6.57Zm74.31,78.28c1.51,1.6,1.56,4.84.09,6.48l-3.57-3.19,3.47-3.29Zm.09,6.48l-65.64,73.23-7.13-6.39,65.64-73.23,7.13,6.39Zm-72.59,73.39c-1.59-1.6-1.69-4.88-.19-6.55l3.57,3.19-3.38,3.36Zm6.76-6.72l22.49,22.56-6.76,6.72-22.49-22.56,6.76-6.72Zm22.49,22.56c2.88,2.89.69,8.14-3.38,8.14v-4.78l3.38-3.36Zm-3.38,8.14h-204.87v-9.56h204.87v9.56Zm-204.87,0c-4.07,0-6.26-5.26-3.38-8.14l3.38,3.36"/><path id="path1720" class="cls-8" d="m1995.22,1468.67h-224.61l224.61-207.01"/><path id="path1722" class="cls-9" d="m1995.22,1473.45h-224.61v-9.56h224.61v9.56Zm-224.61,0c-4.14,0-6.28-5.48-3.23-8.29l3.23,3.51v4.78Zm-3.23-8.29l224.61-207.01,6.46,7.02-224.61,207.01-6.46-7.02Zm224.61-207.01c2.95-2.72,8.01-.49,8.01,3.51h-4.78l-3.23-3.51Zm8.01,3.51v207.01h-9.56v-207.01h9.56Zm0,207.01c0,2.39-2.39,4.78-4.78,4.78v-4.78"/><path id="path1724" class="cls-6" d="m48.72,911.44l159.88-117.64,73.33-.3,196.64,193.04-46.3,42.35,131.91,194.57-79.78,71.36-51.89-62.39-58.86,54.97"/><path id="path1726" class="cls-9" d="m45.92,907.58l159.88-117.64,5.6,7.73-159.88,117.64-5.6-7.73Zm159.88-117.64c.37-.27,2.35-.92,2.8-.92v4.78l-2.8-3.86Zm2.8-.92l73.33-.3v9.56l-73.33.3v-9.56Zm73.33-.3c.69,0,2.87.88,3.36,1.36l-3.36,3.42v-4.78Zm3.36,1.36l196.64,193.04-6.72,6.84-196.64-193.04,6.72-6.84Zm196.64,193.04c1.81,1.77,1.75,5.26-.11,6.97l-3.25-3.55,3.36-3.42Zm-.11,6.97l-46.3,42.35-6.5-7.1,46.3-42.35,6.5,7.1Zm-53.5,41.5c-1.15-1.7-.8-4.87.71-6.26l3.25,3.55-3.96,2.71Zm7.92-5.41l131.91,194.57-7.92,5.41-131.91-194.57,7.92-5.41Zm131.91,194.57c1.17,1.72.8,4.89-.75,6.27l-3.21-3.57,3.96-2.71Zm-.75,6.27l-79.78,71.36-6.43-7.13,79.78-71.36,6.43,7.13Zm-79.78,71.36c-1.84,1.65-5.28,1.4-6.87-.5l3.66-3.06,3.21,3.57Zm-6.87-.5l-51.89-62.39,7.32-6.12,51.89,62.39-7.32,6.12Zm-51.5-68.97c1.84-1.72,5.31-1.5,6.93.45l-3.66,3.06-3.27-3.51Zm6.54,7.02l-58.86,54.97-6.54-7.02,58.86-54.97,6.54,7.02Zm-58.86,54.97c-1.81,1.69-5.27,1.49-6.89-.39l3.62-3.12,3.27,3.51Zm-6.89-.39L45.1,914.56l7.25-6.24,324.94,375.95-7.25,6.24ZM45.1,914.56c-1.68-1.94-1.25-5.46.82-6.98l2.8,3.86"/><path id="path1734" class="cls-1" d="m893.81,492.47l138.98,82.78,15.14,99.34-139.54,117.84-134.3-137.15-.43-60.49,47.21-51.27,72.93-51.05Z"/><path id="path1736" class="cls-6" d="m193.11,1468.67l182.65-181.45,56.73-53.76,51.85,60.45,79.66-70.4-32.73-50.45,95.68-34.46,95.94,139.79-57.72,127.08.99,63.19"/><path id="path1738" class="cls-9" d="m189.75,1465.3l182.65-181.45,6.72,6.76-182.65,181.45-6.72-6.76Zm182.65-181.45l.08-.1,3.29,3.47-3.36-3.38h0Zm.08-.1l56.73-53.76,6.57,6.95-56.73,53.76-6.57-6.95Zm56.73-53.76c1.81-1.72,5.28-1.53,6.91.37l-3.62,3.1-3.29-3.47Zm6.91.37l51.85,60.45-7.24,6.2-51.85-60.45,7.24-6.2Zm51.39,67.12c-1.81,1.6-5.21,1.37-6.78-.47l3.62-3.1,3.15,3.57Zm-6.31-7.13l79.66-70.4,6.31,7.13-79.66,70.4-6.31-7.13Zm86.81-69.43c1.1,1.7.68,4.82-.84,6.16l-3.16-3.57,3.99-2.6Zm-7.99,5.19l-32.73-50.45,7.99-5.19,32.73,50.45-7.99,5.19Zm-32.73-50.45c-1.59-2.46-.36-6.11,2.39-7.1l1.61,4.5-3.99,2.6Zm2.39-7.1l95.68-34.46,3.21,9-95.68,34.46-3.21-9Zm95.68-34.46c1.68-.6,4.54.34,5.55,1.81l-3.94,2.69-1.61-4.5Zm5.55,1.81l95.94,139.79-7.88,5.38-95.94-139.79,7.88-5.38Zm95.94,139.79c.65.95.89,3.6.41,4.65l-4.35-1.96,3.94-2.69Zm.41,4.65l-57.72,127.08-8.7-3.92,57.72-127.08,8.7,3.92Zm-66.85,125.16c0-.23.34-1.79.43-2l4.35,1.96-4.78.04Zm9.56-.08l.99,63.19-9.56.07-.99-63.19,9.56-.08Zm.99,63.19c.04,2.42-2.35,4.82-4.78,4.82v-4.78l4.78-.04Zm-4.78,4.82H193.11v-9.56h473.07v9.56Zm-473.07,0c-4.07,0-6.26-5.28-3.36-8.16l3.36,3.38"/><path id="path1742" class="cls-6" d="m7.39,569.03l23.88.06,78.03-119.02,85.29.53,47.2,78.64,16.12,58.68,23.42,205.75-72.95.15-159.41,117.62-41.57-47.68"/><path id="path1744" class="cls-9" d="m7.39,564.25l23.88.06v9.56l-23.88-.06v-9.56Zm27.87,7.46c-.59.91-2.91,2.17-4,2.17v-4.78l4,2.61Zm-7.99-5.23l78.03-119.02,7.99,5.23-78.03,119.02-7.99-5.23Zm78.03-119.02c.6-.91,2.91-2.17,4-2.17v4.78l-4-2.61Zm4-2.17l85.29.53v9.56l-85.29-.53v-9.56Zm85.29.53c1.14,0,3.52,1.35,4.11,2.33l-4.11,2.45v-4.78Zm4.11,2.33l47.2,78.64-8.22,4.89-47.2-78.64,8.22-4.89Zm47.2,78.64c.05.07.48,1.11.5,1.2l-4.61,1.25,4.11-2.45Zm.5,1.2l16.12,58.68-9.22,2.5-16.12-58.68,9.22-2.5Zm16.12,58.68s.15.72.15.75l-4.76.5,4.61-1.25Zm.15.75l23.42,205.75-9.52,1.01-23.42-205.75,9.52-1.01Zm23.42,205.75c.3,2.64-2.11,5.28-4.76,5.28v-4.78l4.76-.5Zm-4.76,5.28l-72.95.15v-9.56l72.95-.15v9.56Zm-75.79-8.47c.37-.27,2.38-.93,2.84-.93v4.78l-2.84-3.85Zm5.67,7.69l-159.41,117.62-5.67-7.69,159.41-117.62,5.67,7.69Zm-159.41,117.62c-1.76,1.3-4.98.94-6.42-.71l3.58-3.14,2.84,3.85Zm-6.42-.71l-41.57-47.68,7.17-6.28,41.57,47.68-7.17,6.28Zm-41.57-47.68c-.39-.44-1.2-2.55-1.2-3.14h4.78l-3.58,3.14Zm-1.2-3.14v-294.73h9.56v294.73H2.61Zm0-294.73c0-2.4,2.39-4.79,4.78-4.78v4.78"/><path id="path1746" class="cls-1" d="m905.15,988.75l103.81-41.76,32.9,19.15,54.54-47.18,29.26,27.9-50.61,42.82,48.35,46.46-48.52,40.72.39,46.99h0s53.7,74.23,53.7,74.23l-.31.39.43,125.57,60.18,72.76-72.04,71.89h-450.35l-.38-63.07,56.14-126.6.31-.34-95.96-140.21,150.06-277.42-.38-2.19,70.2-.43,58.29,130.35h0Z"/><path id="path1748" class="cls-6" d="m4.78,1404.64l68.2,64.03h119.92l180.66-180.86L4.78,860.34"/><path id="path1750" class="cls-9" d="m8.05,1401.17l68.2,64.03-6.54,6.95L1.51,1408.11l6.54-6.95Zm64.93,72.29c-.65,0-2.8-.86-3.27-1.31l3.27-3.47v4.78Zm0-9.56h119.92v9.56h-119.92v-9.56Zm123.29,8.14c-.5.49-2.68,1.42-3.38,1.42v-4.78l3.38,3.36Zm-6.76-6.72l180.66-180.86,6.76,6.72-180.66,180.86-6.76-6.72Zm187.65-180.61c1.44,1.67,1.33,4.92-.23,6.48l-3.38-3.36,3.6-3.12Zm-7.21,6.24L1.18,863.46l7.21-6.24,368.78,427.48-7.21,6.24ZM0,860.34c0-4.19,5.64-6.3,8.38-3.12l-3.6,3.12H0Zm9.56,0v544.3H0v-544.3h9.56ZM1.51,1408.11c-.55-.51-1.51-2.72-1.51-3.47h4.78"/></g></g></svg>