<?xml version="1.0" encoding="UTF-8"?><svg id="Capa_2" xmlns="http://www.w3.org/2000/svg" width="213.18mm" height="301.85mm" viewBox="0 0 604.28 855.63"><defs><style>.cls-1{fill:#fff;stroke:#1d71b8;}.cls-1,.cls-2,.cls-3{stroke-miterlimit:10;stroke-width:.2px;}.cls-1,.cls-2,.cls-4{fill-rule:evenodd;}.cls-2,.cls-3{stroke:#828383;}.cls-2,.cls-3,.cls-4{fill:#dadada;}</style></defs><g id="Capa_1-2"><g><g><g><path id="path52" class="cls-2" d="m.92,300.76v68.82l3.29,3.13,34.16-34.79"/><g><g><path id="path14" class="cls-2" d="m489.87,166.53l9.31,7.36,5.85.76-6.15,6.28-14.68-8.66,5.68-5.74Z"/><path id="path26" class="cls-2" d="m495.53,208.36v1.63s8.74,8.31,8.74,8.31l-9.56,11.48h-8.17s-6.88,7.65-6.88,7.65h-5.2s.03-2.28.03-2.28l-22.32-22.55,24-24.05,4.54,4.79-4.01,4.48,4.76,4.77-.08,5.45,14.15.33Z"/><path id="path30" class="cls-2" d="m520.63,185.26l17.37,11.69,14.23,12.81-8.33,7.68-4.73.06-3.32,3.29-3.74-.03-1.81.97v3.07s-2.35.02-2.35.02l-2.76-2.26-3.77,3.83,1.15,4.17-4.36,3.94-5.6,8.56-17.86-13.34,9.53-11.41-8.77-8.36.04-1.56"/><path id="path34" class="cls-2" d="m552.27,209.76l8.76,9.52,12.74,25.47-21.15,27.22-9.66-12.62v-9.19l-4.84-4.35-21.75.1-3.74-2.83,5.56-8.58,4.39-3.91-1.21-4.16,3.82-3.87,2.74,2.28,2.36.03v-3.15s1.74-.98,1.74-.98h3.82s3.37-3.28,3.37-3.28l4.65-.03"/><path id="path44" class="cls-2" d="m.92,225.07v-101.07h84.72v31.43h-27.92v40.66l-28.59,28.24-14.5-13.91"/><path id="path48" class="cls-2" d="m.9,224.93l.02,75.71,8,8.11,52.16-53.38-46.43-45.03"/><path id="path54" class="cls-3" d="m1.74,300.76v68.82H.1v-68.82h1.64Zm-1.38,69.41c-.09-.09-.26-.47-.26-.59h.82l-.56.59Zm1.12-1.19l3.29,3.13-1.12,1.19-3.29-3.13,1.12-1.19Zm3.32,4.3c-.28.29-.86.3-1.15.02l.56-.59.58.57Zm-1.17-1.14l34.16-34.79,1.17,1.14-34.16,34.79-1.17-1.14Zm35.32-34.79c.29.29.29.86,0,1.15l-.58-.57.57-.58h0Zm-1.15,1.16L.34,301.34l1.15-1.16,37.45,37.17-1.15,1.16ZM.1,300.76c0-.69.9-1.07,1.39-.58l-.57.58"/><path id="path56" class="cls-2" d="m38.34,337.89l28.49,27.71-20.13,20.23-27.76-28.11"/><path id="path60" class="cls-2" d="m18.87,357.74l27.82,28.12-14.7,14.66-27.76-27.79"/><path id="path64" class="cls-2" d="m86.49,280.22l-57.32-55.83,28.53-28.3,6.14,6.36,12.07-11.66,53.54,53.38-6.87,7.45-5.46-4.86-7.65,7.35,1.67,1.83"/><path id="path68" class="cls-2" d="m86.49,280.19l-6.23,6.47,32.61,33.39-45.93,45.54-58-56.87,52.11-53.37"/><path id="path72" class="cls-2" d="m264.16,36.43l.02-4.17,3.66.02-.09-8.02,8.3-8.02v-7.47h3.78s2.01-8.57,2.01-8.57l10.26,9.68.09,3.88h-2.58s-.09,7.18-.09,7.18l1.47,1.94-.08,5.81-7.11,9.13h-3.04l.09,4.15-10.3.03"/><path id="path76" class="cls-2" d="m292.12,9.9l1.82,1.86,3.91-.04,10.76,12.08,3.35.04,11.69,9.39-27.21,25.21-4.04-6.22.03-6.7-1.96.04-.02-3.63-9.58.04-.12-4.14h3.07l7.08-9.12.08-5.8-1.47-1.94.11-7.21h2.57"/><path id="path80" class="cls-2" d="m323.62,33.2l7.78,5.85,5.84,2.17,3.49,5.46,5.41.02,2.36-2.98,6.05.02-7.88,7.94v4.38s-4.49,9.87-4.49,9.87l-16.33,14.9-20.62-20.64-8.8-1.7"/><path id="path88" class="cls-2" d="m285.32,80.76l-.05-17.35,7.11-11.05,3.98,6.14,8.85,1.67,20.66,20.63-8.69,7.5-8.81,1.78-.02,11.99-5.01,6.38h-4.3l.12-5.02-12.2-3.29,2.94-14.78"/><path id="path192" class="cls-2" d="m181.47,82.3l39.64-42.38.19-7.05,8,8.28-7.14,8,2.86,3.43-9.1,8.82,3.92,4.33-27.8,27.33"/><path id="path196" class="cls-2" d="m221.31,32.75l2.86-3.59,5.81-.05,3.89,4.05h10.57l6.85,5.43h7.71l4.28-4,6.57,5.71h20.56v3.72l2.07-.06-.06,6.91-7.38,11.56.09,17.95-7-.1-5.14,2.86-14.36,15.26-5.63-5.84h-8.86l-4.85-5.71.29-4.57-5.43-6.28h-4.9l-13.38-14.57,9.08-8.89-2.82-3.39,7.16-8.01"/><path id="path200" class="cls-2" d="m199.73,85.54l20.1-19.79,9.46,10.22,4.85.02,5.44,6.29-.29,4.56,4.98,5.81,8.71-.08,9.11,9.41-7.66,6.57-.16,16.26-7.6,8.57-7.88-.02-17.56-18.05-9.03-.03-5.64-6.88,3.02-3.15,5.39,4.44,4.21-3.98"/><path id="path204" class="cls-2" d="m258.65,98.44l14.44-15.26,5.06-2.87,6.94.08,4.77,4.76-2.99,15.22,12.52,3.47-.07,5.1,6.67.05.04,5.89-10.21,10.12-1.63-1.58-6.22,6.58-4.6-4.13-7.89,7.53-5.28-5.07-3.24,2.56-4.86-6.11h-7.8s.18-16.19.18-16.19l7.57-6.6"/><path id="path208" class="cls-2" d="m366.01,101.74l-.08,4.56-3.87.99-1.75,5.75-4.73.75-12.27,12.48-8.14-6.38.02-7.96-8.61-8.15,10.47-6.66,10.9.09,5.08-5.04,5.23.6,9.03-8.27,6.26.13,1.51,7.75"/><path id="path212" class="cls-2" d="m295.79,125.01l19.41-19.54,4.67,2.6,6.71-4.27,8.6,8.15.15,7.75-8.57,9.52,1.92,2.46-.07,5.78-9.49,9.86-2.32.02-4.67-4.47,2.18-2.83-4.31-4.04-2.85,2.92-7.15-6.26v-3.8"/><path id="path216" class="cls-2" d="m85.5,124.08h47.76l-10.82,12.74,9.99,12.45,6.16-6.57,5.75,6.16-4.11,5.34,8.21,8.21-20.53,21.35-5.34-5.34-9.9,9.34-25-19.2,10.67-13.14h-12.73"/><path id="path220" class="cls-2" d="m133.29,124.05l9.85.37,7.07-7.44,5.02.74,5.02-4.65,2.05,2.6,2.97-2.05,8.18,7.81,6.69,9.3,6.88,7.44-14.69,14.88-6.14-6.14-7.44,6.88-2.97-.74-4.09,3.72-13.02-14.13-6.14,6.69-10.04-12.46"/><path id="path224" class="cls-2" d="m150.31,116.96l31.17-34.68,10.54,10.78,7.7-7.51,19.48,20.17-4.22,3.98-5.39-4.45-14.06,14.53.34,8-4.56.43-.31-3.06-5.55.02-5.28,5.66-6.63-9.37-8.24-7.77-2.99,1.98-2.09-2.61-4.99,4.62"/><path id="path228" class="cls-2" d="m206.54,108.48l5.69,6.82h9.1l22.93,23.69-9.1,9.48,3.03,3.22-6.07,5.88,2.46,2.27-5.62,5.7-2.39-2.41-5.69,5.44-13.41-13.28-9.19,9.43-5.79-5.64v-5.31l-10.47-10.45,4.89-5.2-6.74-7.29,5.31-5.69h5.5l.38,3.03,4.55-.38-.38-7.96"/><path id="path232" class="cls-2" d="m195.08,168.07l12.45-12.81,13.36,13.36,5.68-5.49,11.74,12.01-10.82,12.16,8.06,8.24-22.15,22.52-6.96-6.77-10.25,9.34-19.95-21.42,24.9-24.71"/><path id="path236" class="cls-2" d="m92.32,207.25l30.15-28.86,5.39,5.37,20.53-21.26-8.07-8.22,4.02-5.42,7.38,7.9,4.09-3.68,2.93.79,7.4-6.95,6.17,6.26,9.67-9.84,10.51,10.51v5.32l5.76,5.65-3.23,3.31,6.22,6.45-24.98,24.62,9.69,10.39-45.62,45.38"/><path id="path240" class="cls-2" d="m112.69,187.75l-24.98-19.18,10.63-13.11-40.68-.05.05,40.68,6.15,6.32,12.05-11.65,16.43,16.5"/><path id="path244" class="cls-2" d="m238.18,151.7l-3.02-3.22,9.09-9.48-5.43-5.64,7.83.03,7.68-8.6,7.78-.02,4.88,6.19,3.15-2.69,5.38,5.1,7.85-7.6,4.65,4.23,6.17-6.62,1.67,1.61,4.15,3.93.03,3.67,7.11,6.32,2.88-2.92,4.3,4.04-2.17,2.78,4.64,4.51-7.24,7.93-5.56-6.39-5.82,5.44-2.41-2.65-6.7,6.26.12,8.27-5.84,6.07-7.26-7.51-3.11,3.23-2.01-1.34-6.9,8.1-2.12-2.72-5.26.02-14.55-20.26"/><path id="path280" class="cls-2" d="m112.91,320.01l-32.61-33.32,30.81-30.72-1.65-1.84,7.69-7.35,5.42,4.85,6.9-7.42,10.82,10.76,6.29-6.24,10.69,10.37-.06,4.07,9.88,9.59-11.92,12.79,7.78,6.32-.2,5.01,5.91,5.43-10,9.97-19.76,7.27-11.98,11.7,2.24,2.28-5.13,4.8-4.25-4.47-2.93,3.03-10.36-10.51"/><path id="path284" class="cls-2" d="m146.6,248.71l18.27-18.16,44.73,45.45-4.91,5.47,5.65,5.57-22.15,21.43-6.25-6.01-6.25,6.25-12.95-11.82.2-5.01-7.45-6.49,11.78-12.5-10.1-9.86v-3.85"/><path id="path288" class="cls-2" d="m185.93,209.58l10.28,11.01,10.22-9.3,6.95,6.71,12.1-12.24,37.47,38.17-47.46,48.16-10.81-10.62,4.88-5.47-44.6-45.52"/><path id="path292" class="cls-2" d="m325.06,207.42l15.25-14.48-.65-7.91-17.53-16.53,1.71-2.12-12.43-13.18-1.86,2.05-5.56-6.38-5.84,5.49-2.31-2.74-6.81,6.3.15,8.23-10.01,10.48,16.65,17.48-2.91,3.2.04,2.61,6.39.02,2.62,3.31,16.33-.13"/><path id="path296" class="cls-2" d="m264.09,174.75l6.93-8.17,1.94,1.41,3.13-3.25,7.26,7.48-4.18,4.43,16.67,17.48-2.95,3.21.08,2.62h6.4s2.67,3.34,2.67,3.34l-17.02,17.42-12.12-12.06,2.57-3.09-7.38-7.59v-5.64l-6.48-5.78,3.53-3.34.08-6.89"/><path id="path300" class="cls-2" d="m238.17,151.71l3.98.1,14.52,20.27,5.28-.05,3.22,4.25-.05,6.92-3.49,3.33,6.5,5.87-.04,5.58,7.36,7.59-2.5,3.07,5.49,5.56-22.82,22.21-30.09-30.57,10.07-10.31-8.09-8.23,10.78-12.13-9.32-9.56,5.64-5.76-2.48-2.24"/><path id="path304" class="cls-2" d="m116.84,336.87l2.95-2.98,4.26,4.43,5.09-4.8-2.2-2.28,11.97-11.69,19.81-7.19,9.94-10.08,7.03,6.39,6.26-6.25,6.25,6.02-15.78,15.62,2.87,3.25-31.52,31.9-9.55-8.21v-4.2l-3.63-3.44-7.26.19"/><path id="path308" class="cls-2" d="m.92,369.63l80.74,80.59-20.49,21.05-14.95-16.34L.92,501.17"/><path id="path312" class="cls-2" d="m.92,501.46l45.33-46.58,22.14,24.24-23.35,23.34,13.77,13.81-5.11,4.78,12.45,13.48-6.22,6.01,8.39,9.96L.92,617.88"/><path id="path316" class="cls-2" d="m45.07,502.39l27.17,27.44,7.25-6.8,12.7,13.15,23.35-23.36v-28.12l-33.9-34.5-20.45,21.01,7.19,7.91"/><path id="path320" class="cls-2" d="m45.53,573.29l12.88,12.38,6.37-6.39,8.14,8.19,20.29-20.81,3.96,3.78,11.22-10.97v12.95h34.7l4.49-4.94v-36.94l-6.6-7.54h-13.38l-12.06-10.21-23.36,23.33-12.71-13.03-7.23,6.66-13.42-13.43-5.11,4.7,12.45,13.48-6.22,6.03,8.29,9.8"/><path id="path324" class="cls-2" d="m32.04,400.53l47.93-47.74,41.5,41.14-1.97,2.6,15.83,15.54-5.22,5.85-8.24-7.29-40.23,39.55"/><path id="path328" class="cls-2" d="m79.9,352.7l26.61-26.33,16.84,17.2,7.22-.2,3.65,3.45v4.18s9.55,8.2,9.55,8.2l4.61-4.65,9.21,9.57-3.66,4.08,14.52,14.57,11.74-11.41,9.09,8.89-30.6,30.19-11.26-11.31-12.09,12.93-15.86-15.51,1.97-2.63"/><path id="path332" class="cls-2" d="m81.67,450.19l40.22-39.55,8.17,7.27,17.38-18.86,11.24,11.38-10.67,10.47.5,22.92,18.44,17.94-4.96,5.59,9.94,10.42-4.09,4.2,7.8,8.25-12.13,12.71,7.65,7.37-16.27,16.46,1.55,2.51-8.8,9.11-.03-7.79-6.59-7.58h-13.36s-12.07-10.2-12.07-10.2l-.02-28.09"/><path id="path336" class="cls-2" d="m174.2,395.12l-26.2,25.8.51,22.89,18.43,17.95-4.96,5.59,9.92,10.41-4.07,4.21,7.8,8.26-12.12,12.7,7.64,7.39,52.5-53-7.55-7.86,5.83-6.08"/><path id="path340" class="cls-2" d="m449.74,269.52l-11.27-11.37,10.48-10.23-10.43-10.14,5.71-6.33-5.12-5.75,13.04-13.12,22.37,22.53-.15,6.72,4.05,2.16-.04,4.48-4.05.04-19.46,21.09"/><path id="path344" class="cls-2" d="m395.28,248.71l3.19-.05-.05-5.58-10.58-5.14,6.91-8.47,12.09-.24.44-4.16,5.87-5.68,6.08-.18,3.37-3.43,7.51,7.89-2.49,3.46,21.34,20.75-10.47,10.24,11.29,11.4.12,6.15-15.72-.71-12.36-2.64-10.64-11.31v-3.78l-4,.06-1.19,1.83-7.45-2.87-3.29-3.61"/><path id="path348" class="cls-2" d="m474.47,237.43l5.21.02,6.91-7.71,8.18.02,21.67,16.16,21.68-.08,4.86,4.32-.03,9.13,9.67,12.67-2.12,3.95-4.59.09-2.17,3.28-4.25.04-6.32,6.52-14.35.17-4.38,9.98-17.72,6.09-.37,4.89-8.07.04-.03-9.72-3.3-.11-11.68-13.26h-5.28l-4.44,4.25-13.72-12.51-.09-6.12,5.14.02,19.42-21.1h4.12s.01-4.46.01-4.46l-4.08-2.19"/><path id="path352" class="cls-2" d="m398.52,256.23l-13.44,4.16,37.48,36.5.06,3.83,14.46,13.18,26.52-25.69-13.79-12.53-15.73-.78-12.31-2.62-10.64-11.31-.03-3.73h-3.94s-1.14,1.88-1.14,1.88"/><path id="path356" class="cls-2" d="m413.39,316.78l11.83-13.71,11.84,10.73,30.94-29.87h5.29s11.68,13.24,11.68,13.24l3.34.12-.04,13.02-6.49,6.82,12.65,12.61-22.04,22.36,5.71,6.01-10.68,10.66-28.27-28.45-6.72.07-13.9-13.04v-4.58"/><path id="path360" class="cls-2" d="m369.63,340.82l43.78-24.03,5.15,6.04v4.45s13.89,13.16,13.89,13.16l6.71-.11,11.27,11.36-25.98,25.66,3.67,3.98-38.89,36.64-22.26-22.06.49-3.61,6.77-12.18,2.94-16.34h3.25l2.02-1.76v-2.99s-7.05-12.4-7.05-12.4"/><path id="path364" class="cls-2" d="m148.37,354.6l26.91-27.24-2.87-3.27,37.92-37.06,5.16,5.05,11.31-11.48,15.21,15.71,6.01-5.32,5.27,6.09-5.8,5.67,4.2,5.21-29.38,29.79,4.38,5-37.44,37.47-9.07-8.83-11.76,11.38-14.51-14.56,3.68-4.07"/><path id="path368" class="cls-2" d="m220.04,349.44l6.39,6.68,20.28-20.58,19.67,19.29-4.02,3.95,14.18,14.4,5.16-5.82,12.37,12.12,1.88-2.25,3.43,3.2,13.07-12.93-7.37-7.66,25.82-26.41,6.48,6.41,23.97-24.49-16.33-15.67-10.97,11.09-6.58-5.81-4.73,4.53.02,2.58-13.2,13.01-9.69-9.24-16.16,16.12-3.92-2.85-5.84,6.29-15.12-14.65-6.02,5.81-9.82-9.83-20.63,20.98,4.34,5.01"/><path id="path372" class="cls-2" d="m286.47,428.18l7.23-7.39v-11.69s9.46-9.65,9.46-9.65v-10.57l-9.09-9.42,1.88-2.22,3.43,3.19,13.06-12.9-7.37-7.68,25.82-26.4,6.49,6.41,15.4-15.73,22.64,22.5,6.97,12.41v2.93s-1.99,1.81-1.99,1.81h-3.24l-2.95,16.38-6.78,12.16-1.06,7.62-55.29,55.81-6.73-6.71,4.24-4.06-4.19-4.23h-6.06"/><path id="path376" class="cls-2" d="m213,434.17l-38.78-39.06,45.83-45.68,6.4,6.7,20.26-20.61,19.65,19.27-3.99,3.98,14.21,14.4,5.12-5.83,21.51,21.55-.03,10.54-9.47,9.67v11.68s-29.95,30.79-29.95,30.79l-3.18-3.49,2.75-3.09-4.33-3.99-6.2-.03-23.38-23.55"/><path id="path380" class="cls-2" d="m548.62,275.9l-4.49.08-2.23,3.28-4.1.09-6.32,6.51-14.17.18-4.38,9.95-17.46,6.09-.37,4.87-7.95.06-.05,3.34-6.41,6.79,17.48,17.69.7-2.46h7.67v-9.56l12.15.08-.05-7.42,8.74-.07,12.88,6.31,9.48-.06,3.15-4.87-7.63-20.96"/><path id="path384" class="cls-2" d="m552.91,316.72l24.89,26.45-.27,13.39-10.07-.98-18.45,21.58-11.17-11.23,4.25-4.27-2.51-5.57,8.28-14.23-11.55-.03,4.03-20.12,9.41.02"/><path id="path388" class="cls-2" d="m577.79,343.2l21.4.05,5,6.12-1.33,55.83-9.67,14.44-10.3-5.1-5.09-6.65v-6.74s-7.55-5.87-7.55-5.87l-3.27-.04-17.97-18.09,18.45-21.58,10.08.97"/><path id="path396" class="cls-2" d="m493.19,329.76l-3.05,3.11,19.24,19.21-4.47,4.89,2.36,2.8-4.86,4.85,8.36,8.04-.04,3.36,9.55,7.63,21.84-22.08-2.53-5.49,8.3-14.28-11.6.04,4.04-20.1-12.98-6.36-8.73.08.04,7.4-12.15-.05v9.49s-7.68,0-7.68,0l-.69,2.55"/><path id="path408" class="cls-2" d="m593.2,419.65l-20.97,27-5.36,9.98-10.17,13.19-39.8-35.58,9.07-9.08h6.7l-.06-9.47,15.29-.08-.03-10.71,9.77.03-.12-13.03h6.12s3.39,3.37,3.39,3.37l3.21.03,7.53,5.87v6.72s5.1,6.63,5.1,6.63"/><path id="path412" class="cls-2" d="m513.54,437.59l12.43-12.44h6.69s-.05-9.47-.05-9.47l15.27-.08v-10.7s9.76.02,9.76.02l-.11-13.02,6.08-.04-25.77-25.95-23.67,23.92-4.68-4.06-23.55,24.28"/><path id="path416" class="cls-2" d="m486.01,410.05l5.1,5.17-7.26,7.7-22.24-22.5,17.79-18.6-12.91-12.99,10.54-10.71-5.63-6,18.76-19.25,19.22,19.21-4.47,4.89,2.37,2.8-4.89,4.84,8.36,8.04-.04,3.35,9.58,7.67-6.11,6.19-4.67-4.05"/><path id="path420" class="cls-2" d="m389.23,417.99l38.43-36.64-3.62-3.98,25.66-25.65,29.69,30.1-17.77,18.59,22.2,22.48,7.28-7.64,13.49,13.44-27.2,26.51-5.81-5.83-12.31,13.12-5.82-5.4-6.76,6.41-11.81-12.35-3.36,3.34-14.89-15.23h-6.16"/><path id="path424" class="cls-2" d="m478.45,455.18l27.52-26.48,9.06,8.87,3.42-3.35,40.27,35.63,2.77,2.3-13.82,12.82-8.02,5.81-9.44,18.87-20.24-23.33"/><path id="path428" class="cls-2" d="m509.95,486.31l-28.44,28.54,6.77,7.81,6.7.05,3.98,4.02,7.42,20.29,8.13-4.36,13.26-11.7,2.45-21.3"/><path id="path432" class="cls-2" d="m506.36,547.05l-9.92,7.07-32.28,14.74-2.47-5.27.04-6.35-4.43-10.15-.16-18.96,5.68,5.43,18.69-18.74,6.8,7.89,6.65-.02,3.98,4.02"/><path id="path436" class="cls-2" d="m435.47,451.08l-20.02,19.9,25.25,25.84-7.5,8.46,29.63,28.29,47.12-47.27-37.37-36.93-12.46,13.12-5.89-5.41-6.85,6.39"/><path id="path444" class="cls-2" d="m382.57,503.67l32.87-32.69,25.25,25.84-7.45,8.46,23.9,22.88.17,18.93,4.42,10.19-.02,6.32,2.46,5.27-29.85,13.18-12.41-.03-12.01-32.8h-5.26s.09-6.1.09-6.1l-22.34-31.23"/><path id="path448" class="cls-2" d="m378.4,476.81l-42.66,43.94.02,1.24,36.96,13.28-6.87,14.05v12.89l-5.87,6.32,5.42,5.49v6.08l-5.98-.03-.07,8.21,5.96,11.1,30.75-5.77,24.48-11.64,1.34.03-12.03-32.8h-5.23s.06-6.15.06-6.15l-22.32-31.2.21-8.19,4.04-4.04-.06-5.41-3.03-5.35-.03-12.04"/><path id="path452" class="cls-2" d="m335.79,521.95l-9.64,9.79v6.95s-19.22,19.79-19.22,19.79l9.2,9.54-4.37,4.89,3.81,3.53,4.71-4.62,3.62,3.81,6.91.03,8.64,30.54,25.9-6.82-5.97-11.11.08-8.19h5.97s0-6.07,0-6.07l-5.42-5.5,5.86-6.32v-12.9s6.87-14.04,6.87-14.04"/><path id="path456" class="cls-2" d="m212.88,434.2l16.58-16.83,23.33,23.58,6.21.03,4.32,4-2.73,3.11,12.99,14.45-9.82,10.69,1.21,1.24-10.12,9.97v4.04s-6.41,6.31-6.41,6.31l-1.53-1.88-19.44,19.37-29.23-29.3,25.44-25.67-7.56-7.87,5.82-6.07"/><path id="path460" class="cls-2" d="m263.75,473.23l8.57,8.73-3.17,3.12,10.65,9.97,6.66-7.06,9.79,9.95h5.77s4.64,4.84,4.64,4.84l5.36-5.35,23.73,23.3,37.5-38.75-44.25-44.27-17.91,18-6.74-6.66,4.24-4.06-4.21-4.23h-6.04s-11.89-12.58-11.89-12.58l-22.76,23.36,9.85,11"/><path id="path464" class="cls-2" d="m264.96,474.44l7.38,7.52-3.15,3.09,10.63,10,6.64-7.09,9.78,9.94,5.78.03,4.66,4.82,5.35-5.34,23.71,23.31.02,1.22-9.64,9.8v6.92s-4.53,4.68-4.53,4.68l-7.7-7.65-13.92,13.4-26.87-26.82-17.7,17.7-27.95-27.71,19.43-19.37,1.56,1.88,6.42-6.36-.02-3.99"/><path id="path468" class="cls-2" d="m152.9,589.44l-5.31-.02.03-51.04,8.8-9.11-1.53-2.49,43.35-43.81,44.73,44.7.06,18.31-16.32,15.76-9.4-9.12h-21.83l-12.37,12.53-3.03-2.71"/><path id="path472" class="cls-2" d="m339.42,606.21l-43.58,8.53-36.2,5.03.12-18.16-6.5-7.03.18-20.37-12.83-13.68-.12-12.1,2.52-2.44-.04-18.31,12.44,12.33,17.7-17.7,26.88,26.81,13.92-13.38,7.69,7.63-14.66,15.14,9.18,9.53-4.36,4.89,3.82,3.53,4.71-4.56,3.62,3.77,6.9.03"/><path id="path476" class="cls-2" d="m259.66,619.75l.1-18.13-6.49-7.04.18-20.38-12.84-13.7-.12-12.08-13.8,13.33-9.41-9.14h-21.79s-12.36,12.54-12.36,12.54l-3.09-2.69-27.15,26.99.07,21,22.3,10.88,22.14.05,10.33,6.66"/><path id="path480" class="cls-2" d="m72.91,587.5l28.54,28.8,11.77-.1-.05-6.89,6.24-6.99h14.97l13.18-12.93v-21.96s-4.45,4.96-4.45,4.96h-34.68v-12.97l-11.23,10.98-3.99-3.67"/><path id="path484" class="cls-2" d="m.92,668.78l33.12,15.07h34.74l20.43,13.45v7.44l35.75,20.89v-43.65l-23.68-14.39.16-51.29-36.65-36.97-6.39,6.32-12.87-12.35L.92,617.9"/><path id="path492" class="cls-2" d="m113.23,616.2l-.06-6.91,6.26-6.96h14.97s13.19-12.98,13.19-12.98l5.34.05.07,20.98,22.23,10.96-.05,6.71-40.52-1.98"/><path id="path496" class="cls-2" d="m.92,668.7l33.13,15.17h34.74s20.4,13.44,20.4,13.44l.03,7.42,35.79,21-21.82-.09v37.33l-8.98,9.38.09,12.51,21.21,20.89-.02,8.82-11.29,24.22-34.23,16.73-6.4-1.09-17.51-24.71L.92,812.3"/><path id="path500" class="cls-2" d="m355.38,222.73l9.56.05.04,3.93,22.85,11.24,6.9-8.45,12.11-.23.47-4.19,5.85-5.62,6.11-.2,1.77-1.83-24.05-22.75-.12-6.39-3.23-2.77-17.92,15.96-22.11,13.43-.02,3.01"/><path id="path504" class="cls-2" d="m327.68,243.33l.04-4.94-4-5,5.5-6.26,4,4,6.26-6.76,4.63,4.78,6.36-6.42,14.46.08.04,3.9,33.43,16.43.06,5.5-3.16.04-.06,3.91,3.32,3.66-13.54,4.15.18,8.56-4.17,3.1-20.03-17.66,2.75-3.75-15.33-10.58-12.15.11.02,3.15"/><path id="path508" class="cls-2" d="m226.84,280.64l36.12-36.71-7.36-7.49,22.89-22.29,6.52,6.6,17-17.47,16.31-.13,18.06,11.77,8.94-4.19,3.08,1.71v7.18s2.07,3.12,2.07,3.12l-6.36,6.42-4.65-4.76-6.28,6.75-3.95-4.03-5.5,6.27,3.97,5.01v4.91s-16.12.16-16.12.16l-7.48,4.67v9.9l4.65.02-.04,10.25h-8.78s-4.35-4.04-4.35-4.04l-43.89,43.69-4.22-5.19,5.82-5.67-5.27-6.06-6.04,5.29"/><path id="path512" class="cls-2" d="m287.97,271.89l7.63-7.65,4.32,4.08,8.8-.02.03-10.24-4.65-.03v-9.86s7.51-4.71,7.51-4.71l24.67-.11-.03-3.16,12.17-.13,15.33,10.59-2.76,3.75,19.97,17.66-10.42,7.63-16.61.09-7.63,4.05-26.05-.02-5.91,5.84-14.41-14.34-4.41,4.63"/><path id="path516" class="cls-2" d="m242.93,316.74l45.02-44.87,7.58,8.07,4.42-4.65,14.4,14.37,5.9-5.85h17.37s11.34,11.86,11.34,11.86l-14.92,15.1-6.57-5.85-4.74,4.57.04,2.57-13.2,13.03-9.73-9.23-16.13,16.06-3.92-2.81-5.84,6.29-15.13-14.66-6,5.83"/><path id="path520" class="cls-2" d="m370.51,279.74l14.69-10.76-.11-8.53,37.47,36.35v3.88l2.67,2.37-11.93,13.83-43.65,23.97-16.89-16.72,8.58-8.76-16.36-15.62,3.91-4.05-11.35-11.88,8.78.05,7.66-4.09"/><path id="path524" class="cls-2" d="m360.33,113.01l1.8-5.74,3.82-1.01,17.09,15.32-4.23,3.63,1.06,3.47-9.96,8.13,5.43,9.67-.59,3.33-14.81-.15-12.96,7.69h-4.38s-10.41-10.1-10.41-10.1l3.32-3.47-6.82-6.37v-5.76s-1.94-2.4-1.94-2.4l8.48-9.3,8.1,6.32,12.24-12.47"/><path id="path532" class="cls-2" d="m346.93,157.33l13.05-7.64,14.74.08,6.77,11.49,1.42,6.31-6.33,1.54-14.06,2.97-7.73,3.68-.15-10.04"/><path id="path536" class="cls-2" d="m328.66,137.39l-9.57,9.89-2.3.03-5.38,5.97,12.48,13.13-1.77,2.11,17.52,16.52,15.2-9.28-.21-10.02-7.58-8.52-4.33.15-10.82-10.2,3.55-3.42"/><path id="path544" class="cls-2" d="m382.95,167.56l-4.12,5.06,18.01,15.65.13,6.43,8.56,8.04,14.59-14.61-25.44-29.49-11.73,8.93Z"/><path id="path552" class="cls-2" d="m339.67,185.03l15.18-9.32,7.69-3.63,20.34-4.47-4.01,4.98,14.77,12.87-17.9,15.97-22.13,13.48v3.07s1.78,4.75,1.78,4.75h-4.86s-2.12-3.12-2.12-3.12v-7.17s-3.07-1.71-3.07-1.71l-8.93,4.17-11.37-7.48,15.31-14.16"/><path id="path556" class="cls-2" d="m405.5,202.74l14.75-14.66,3.47-3.29,3.17,3.7,4.87-4.3-2-3.08,5.85-2.11,5.87,8.55-3.53,7.77.19,12.18,9.63,9.44-8.68,8.83,5.14,5.71-5.71,6.31-10.9-10.64,2.49-3.45-7.53-7.87-1.56,1.56-15.51-14.65Z"/><path id="path84" class="cls-2" d="m326.67,79.04l15.26-13.08,4.95-10.13v-4.59s8.74-8.19,8.74-8.19l6.76,9.09,16.29.19,2.85,3.63-6.92,4.96,5.56,7.13-.05,4.5-11.84.07,1.93,10.05-12.9,11.07-5.59-.59-5.39,5.02-11.67-.05"/><path id="path92" class="cls-2" d="m303.39,109.19h2.12s.02,5.86.02,5.86l8.91-9.33,4.47,2.58,16.68-10.86-7.23-18.88-11.14,9.98-8.85,1.82v12.28"/></g><path id="path440" class="cls-2" d="m329,437.7l37.41-37.75.55-4.02,43.77,43.32h6.25s15.05,15.24,15.05,15.24l-45.44,45.16-.03-5.43-3.04-5.32v-12.07h-5.13s-5.13,5.15-5.13,5.15"/></g></g><path id="path100" class="cls-2" d="m424.71,74.83l7.69,10.99-10.05,2.29-1.51,4.6,3.85,2.93-.17,4.18,5.11,1.32-1.11,8.51-3.7.03-4.08,6.8-10.63.05-1.58,3.21-5.16-5.32-2.54-.05-9.35-12.67,12.18-8.71-3.24-5.01,4.45-12.92"/><path id="path104" class="cls-2" d="m369.61,97.98h10.65s11.2,3.66,11.2,3.66l9.38,12.68,2.52.05,5.18,5.39.18,4.17h-3.67s-3.23-3.72-3.23-3.72l-6.69,4.76v2.15l-3.32,2.37-25.87-23.22.07-4.54"/><path id="path272" class="cls-2" d="m449.29,192.58l17.02-9.95-3.29-4.54-6.4,3.98-2.06-1.88-5.3,2.98.02,9.4Z"/><path id="path276" class="cls-2" d="m469.99,194.78l-22.22,22.18-9.66-9.51-.07-12.13,3.43-7.74,7.83-4.4v9.37s16.99-9.89,16.99-9.89l.02,7.68,3.68,4.45Z"/><path id="path528" class="cls-2" d="m383.02,121.58l-4.18,3.66,1.01,3.4-9.94,8.15,5.43,9.64-.62,3.29,6.74,11.63,1.45,6.22,11.76-8.95-4.34-6.82,3.78-3.48.03-4.16h5.05s4.78-7.27,4.78-7.27l-8.82-9.85-3.31,2.4"/><path id="path540" class="cls-2" d="m390.34,151.79l3.81-3.51.03-4.11h5.02s4.77-7.26,4.77-7.26l5.21.03,2.89,4.81.99,3.59,1.43,12.58h-4.46s-9.75,7.2-9.75,7.2l-5.54-6.35-4.4-6.97Z"/><path id="path548" class="cls-2" d="m400.26,165.11l9.77-7.19,4.48-.02,12.02,11.8-2.83,2.59,8.07,11.9-4.88,4.36-3.17-3.81-3.6,3.36-19.87-22.99Z"/><path id="path22" class="cls-2" d="m516.63,189.02l-4.83-.57-27.6-16.19-17.87,18.02,3.65,4.53,6.18-6.24,4.53,4.72-4.01,4.49,4.77,4.78-.1,5.51,14.23.27,21.04-19.32Z"/><path id="path96" class="cls-2" d="m380.92,55.03l7.89,8.34,11.54.13,19.92,11.32-15.35.18-4.51,12.92,3.27,5.02-12.16,8.67-11.17-3.66-10.71.02,5.45-5.62-1.53-7.72-6.27-.12,3.08-2.88-1.79-9.97,11.03-.1.05-4.43-5.15-7.18"/></g><g><g><polygon class="cls-2" points="444.28 149.36 442.11 150.95 442.09 150.97 438.25 146.74 438.24 146.74 438.24 146.73 434.88 143.04 434.86 143.03 434.85 143.01 437.98 140.09 437.99 140.1 443.19 144.82 444.25 145.77 444.26 145.78 444.28 149.36"/><g><path class="cls-2" d="m452.49,157.83l-3.42,4.05h-.01s-4.29.01-4.29.01l.02.14-8.8,16.27c-.21-.09-.47-.13-.65-.07l-5.32,1.92-5.23-7.73,2.31-2.12c.32-.29.32-.88.02-1.18l-3.98-3.91,5.91.05,4.79-6.71h0s8.24-7.58,8.24-7.58l.02-.02,2.17-1.59v.09l8.2,8.37h.01Z"/><path id="path256" class="cls-2" d="m468.54,165.23l-5.54,4.66,2.92,2.82-2.92,2.49.02,2.85,3.28,4.6v7.66s6.73-6.75,6.73-6.75l-2.5-2.73,5.36-5.3.07-5.95-6.21-.03"/><path id="path136" class="cls-2" d="m437.97,140.13l6.29,5.64,2.71-2.99-3.13-2.77-3.04-3.19"/><path id="path164" class="cls-4" d="m426.23,150.13l4.67,5.9,1.85-5.23-2.54-4-3.98,3.33Z"/><path id="path252" class="cls-2" d="m473.74,160.83l3.98,2.6,12.14,3.1-16.81,17-2.56-2.68,5.37-5.32.08-5.94h-6.22s-1.17-4.39-1.17-4.39"/><path id="path108" class="cls-2" d="m412.01,116.5l5.99,8.39,3.28-.03,4.06,4.17-2.33,3.23-5.49-4.24-.04,7.67-5.45,6.07-2.85-4.84-5.18-.04-8.84-9.79-.04-2.17,6.72-4.71,3.27,3.74h3.64s-.25-4.29-.25-4.29l1.63-3.15"/><path id="path116" class="cls-2" d="m432.36,85.82l5.44.85.8.54,2.35-.05,7.71-3.05,7-.23,4.49,1.31,1.71,3.34v12.78l-5.37,9.63-20.86.09-2.31-1.31-4.84-.08,1.13-8.49-5.12-1.36.14-4.1-3.83-2.97,1.51-4.6,10.02-2.29Z"/><path id="path248" class="cls-2" d="m462.28,161.05l4.73-4.49,6.72,4.24-7.62,6.42-1.82-1.64-3.3,2.84-2.02-1.14-.05-2.37"/><path id="path144" class="cls-2" d="m430.21,146.78l2.58,4.04,5.45-4.09-3.35-3.7"/><path id="path148" class="cls-2" d="m422.99,132.21l2.39-3.17,3.61-.02,6.03,7.36-6.88.37"/><path id="path152" class="cls-2" d="m417.48,135.68l-.03-7.75,5.59,4.32,5.16,4.55-3.34,5.63"/><path id="path156" class="cls-2" d="m424.84,142.45l3.28-5.74,6.98-.34,2.9,3.76-3.16,2.91-4.65,3.79-3.96,3.33.54-5.28"/><path id="path160" class="cls-2" d="m414.5,157.88l-1.51-12.65-.94-3.51,5.48-5.94,7.23,6.58,2.1,2.45-.61,5.3"/><polygon class="cls-2" points="442.11 150.95 442.09 150.97 433.85 158.56 433.84 158.55 433.11 157.91 430.93 155.99 432.8 150.82 432.8 150.81 438.24 146.73 438.24 146.74 438.25 146.74 442.11 150.95"/><polygon class="cls-2" points="433.85 158.54 433.84 158.55 429.05 165.26 423.14 165.21 421.96 165.2 421.94 165.2 415.07 158.44 414.53 157.91 414.52 157.9 414.5 157.88 414.49 157.87 414.48 157.86 414.49 157.85 414.5 157.85 414.52 157.83 414.7 157.72 415.19 157.4 415.25 157.36 417.5 155.9 426.27 150.2 427.72 152.02 430.91 156 430.99 156.1 433.11 157.91 433.85 158.54"/><path id="path260" class="cls-2" d="m452.6,169.84l6.37-2.56,2.01,1.17,3.33-2.88,1.79,1.71-3.09,2.62,2.96,2.84-2.97,2.49.02,2.87-6.45,3.96-1.97-1.77v-4.41l-2.1-1.15"/><path class="cls-3" d="m461.02,150.63l-2.26,1.91-2.04,1.72h0s-4.21,3.56-4.21,3.56h0s-.01.01-.01.01h-.01s-8.2-8.38-8.2-8.38v-.09l-.03-3.59v-.02l1.85-2.01,1.04-1.13,3.27-2.29.88-.61.31-.22.37.22,8.13,4.84.92,6.08Z"/><path id="path178" class="cls-2" d="m466.99,156.62l-5.97-5.9-4.35,3.51,5.64,6.86s4.68-4.3,4.68-4.47"/><path class="cls-2" d="m452.49,157.83c.3.34,6.26,6.97,6.43,7.14l.02-.03,3.34-3.85-.02-.02-5.55-6.8-.02-.03-4.21,3.58"/><polygon class="cls-2" points="459.01 167.24 458.97 167.26 454.73 168.99 452.63 169.84 452.61 169.85 452.59 169.86 449.42 162.67 449.07 161.88 452.49 157.83 452.5 157.83 458.92 164.92 458.94 164.94 458.98 164.98 459.01 167.24"/><polygon class="cls-2" points="454.62 175.96 454.61 177.36 454.6 179.41 454.59 180.15 454.55 180.17 451.88 181.71 450.01 182.79 449.33 183.18 449.31 183.19 449.3 183.2 449.29 183.19 449.29 183.18 449.28 183.17 449.21 183.08 448.81 182.51 447.06 180.07 445.64 178.09 447.19 176.03 444.79 162.03 444.77 161.89 449.06 161.87 449.07 161.88 449.42 162.67 452.63 169.83 452.63 169.84 452.64 169.86 452.52 174.4 452.51 174.64 453.6 175.32 454.61 175.95 454.62 175.96"/><polygon class="cls-2" points="449.27 183.18 448.48 183.62 448.45 183.64 446.14 184.94 442.2 187.16 441.51 187.55 441.5 187.55 441.49 187.56 441.48 187.54 441.31 187.3 441.3 187.28 441.03 186.9 439.7 184.94 435.62 179 435.62 178.99 435.99 178.3 444.79 162.03 444.8 162.02 447.19 176.03 445.65 178.09 447.06 180.07 448.8 182.52 449.27 183.18"/></g></g><path id="path132" class="cls-1" d="m449.66,135.53l1.94,3.97-4.63,3.2-3.07-2.67"/><path id="path128" class="cls-1" d="m448.31,129.79l1.37,5.76-5.79,4.47-3.11-3.24,5.01-6.82"/><path id="path124" class="cls-1" d="m447.16,125.53l1.13,4.26-2.49.17-4.99,6.77-2.05-2.16.03-6.67"/><path id="path120" class="cls-1" d="m433.37,109.72l13.72,8.36.11,7.47-8.42,2.34-.04,6.72,2.07,2.15-2.77,3.33-9.04-11.12-2.68-5.29.94-5.04,4.29-.03,1.92-3.69"/><path id="path112" class="cls-1" d="m412.02,116.48l8.73-.05,4.02-6.76,8.54.02.16,5.28-1.98,3.65-4.2.03-.98,5.04,2.71,5.36-3.7-.05-4.06-4.11-3.25.03-6-8.44Z"/></g></g></g></svg>